<svg width="30" height="30" viewBox="0 0 30 30" fill="none" xmlns="http://www.w3.org/2000/svg">
<g clip-path="url(#clip0_392_9973)">
<path d="M18.2142 20.3577C18.7826 20.3577 19.3276 20.1319 19.7295 19.7301C20.1313 19.3282 20.3571 18.7832 20.3571 18.2148" stroke="white" stroke-width="1.5" stroke-linecap="round" stroke-linejoin="round"/>
<path d="M9.64282 20.3574H12.8571" stroke="white" stroke-width="1.5" stroke-linecap="round" stroke-linejoin="round"/>
<path d="M20.3572 9.64453V12.8588" stroke="white" stroke-width="1.5" stroke-linecap="round" stroke-linejoin="round"/>
<path d="M11.7857 9.64453C11.2174 9.64453 10.6723 9.8703 10.2705 10.2722C9.86859 10.674 9.64282 11.2191 9.64282 11.7874" stroke="white" stroke-width="1.5" stroke-linecap="round" stroke-linejoin="round"/>
<path d="M1.07141 3.21512C1.07141 2.6468 1.29718 2.10176 1.69904 1.69989C2.1009 1.29803 2.64595 1.07227 3.21427 1.07227H18.2143C18.7826 1.07227 19.3276 1.29803 19.7295 1.69989C20.1314 2.10176 20.3571 2.6468 20.3571 3.21512V9.64369H26.7857C27.354 9.64369 27.8991 9.86946 28.3009 10.2713C28.7028 10.6732 28.9286 11.2182 28.9286 11.7866V26.7866C28.9286 27.3549 28.7028 27.8999 28.3009 28.3018C27.8991 28.7036 27.354 28.9294 26.7857 28.9294H11.7857C11.2174 28.9294 10.6723 28.7036 10.2705 28.3018C9.8686 27.8999 9.64284 27.3549 9.64284 26.7866V20.358H3.21427C2.64595 20.358 2.1009 20.1322 1.69904 19.7304C1.29718 19.3285 1.07141 18.7834 1.07141 18.2151V3.21512Z" stroke="white" stroke-width="1.5" stroke-linecap="round" stroke-linejoin="round"/>
<path d="M17.1428 9.64453H20.3571" stroke="white" stroke-width="1.5" stroke-linecap="round" stroke-linejoin="round"/>
<path d="M9.64282 17.1445V20.3588" stroke="white" stroke-width="1.5" stroke-linecap="round" stroke-linejoin="round"/>
</g>
<defs>
<clipPath id="clip0_392_9973">
<rect width="30" height="30" fill="white"/>
</clipPath>
</defs>
</svg>
