<svg width="30" height="30" viewBox="0 0 30 30" fill="none" xmlns="http://www.w3.org/2000/svg">
<path d="M14.7214 20.357C20.047 20.357 24.3643 16.0398 24.3643 10.7141C24.3643 5.38854 20.047 1.07129 14.7214 1.07129C9.39581 1.07129 5.07855 5.38854 5.07855 10.7141C5.07855 16.0398 9.39581 20.357 14.7214 20.357Z" stroke="white" stroke-width="1.5" stroke-linecap="round" stroke-linejoin="round"/>
<path d="M14.7214 14.9997C17.0884 14.9997 19.0072 13.0809 19.0072 10.7139C19.0072 8.347 17.0884 6.42822 14.7214 6.42822C12.3545 6.42822 10.4357 8.347 10.4357 10.7139C10.4357 13.0809 12.3545 14.9997 14.7214 14.9997Z" stroke="white" stroke-width="1.5" stroke-linecap="round" stroke-linejoin="round"/>
<path d="M12.8571 20.1854L10.9714 28.114C10.9341 28.2647 10.8651 28.4057 10.7691 28.5276C10.673 28.6495 10.552 28.7496 10.4143 28.8211C10.2689 28.8843 10.1121 28.9168 9.95357 28.9168C9.79507 28.9168 9.63826 28.8843 9.49286 28.8211L2.37857 25.714C2.22935 25.6435 2.09804 25.54 1.99451 25.4115C1.89098 25.2829 1.81791 25.1326 1.78079 24.9717C1.74368 24.8109 1.74348 24.6437 1.78021 24.4828C1.81693 24.3219 1.88964 24.1714 1.99286 24.0426L7.5 17.1426" stroke="white" stroke-width="1.5" stroke-linecap="round" stroke-linejoin="round"/>
<path d="M17.1429 20.0782L19.0715 28.1139C19.1098 28.2672 19.1816 28.41 19.2816 28.5323C19.3816 28.6545 19.5074 28.7531 19.65 28.8211C19.7914 28.885 19.9448 28.918 20.1 28.918C20.2552 28.918 20.4086 28.885 20.55 28.8211L27.6215 25.7139C27.7729 25.6442 27.906 25.5401 28.0102 25.4099C28.1144 25.2797 28.1867 25.127 28.2215 24.9639C28.2621 24.8044 28.2638 24.6374 28.2265 24.4771C28.1892 24.3168 28.114 24.1677 28.0072 24.0425L22.2643 16.7354" stroke="white" stroke-width="1.5" stroke-linecap="round" stroke-linejoin="round"/>
</svg>
