<svg width="30" height="30" viewBox="0 0 30 30" fill="none" xmlns="http://www.w3.org/2000/svg">
<g clip-path="url(#clip0_274_151)">
<path d="M10.7145 10.7141C13.3773 10.7141 15.5359 8.55552 15.5359 5.89272C15.5359 3.22992 13.3773 1.07129 10.7145 1.07129C8.05169 1.07129 5.89307 3.22992 5.89307 5.89272C5.89307 8.55552 8.05169 10.7141 10.7145 10.7141Z" stroke="white" stroke-width="1.5" stroke-linecap="round" stroke-linejoin="round"/>
<path d="M7.5001 26.7855H1.07153V23.5712C1.08859 21.9379 1.51934 20.3355 2.32355 18.9138C3.12775 17.4922 4.27918 16.2975 5.67026 15.4414C7.06135 14.5854 8.64672 14.0959 10.2783 14.0186C11.9098 13.9414 13.5344 14.2789 15.0001 14.9997" stroke="white" stroke-width="1.5" stroke-linecap="round" stroke-linejoin="round"/>
<path d="M28.9286 18.2143L18.8358 28.3072L14.2715 28.9286L14.9143 24.3643L24.9858 14.2715L28.9286 18.2143Z" stroke="white" stroke-width="1.5" stroke-linecap="round" stroke-linejoin="round"/>
</g>
<defs>
<clipPath id="clip0_274_151">
<rect width="30" height="30" fill="white"/>
</clipPath>
</defs>
</svg>
