<svg width="30" height="30" viewBox="0 0 30 30" fill="none" xmlns="http://www.w3.org/2000/svg">
<g clip-path="url(#clip0_274_162)">
<path d="M18.2144 10.7144C19.3979 10.7144 20.3572 9.75504 20.3572 8.57157C20.3572 7.3881 19.3979 6.42871 18.2144 6.42871C17.0309 6.42871 16.0715 7.3881 16.0715 8.57157C16.0715 9.75504 17.0309 10.7144 18.2144 10.7144Z" stroke="white" stroke-width="1.5" stroke-linecap="round" stroke-linejoin="round"/>
<path d="M9.64296 21.428C10.2347 21.428 10.7144 20.9483 10.7144 20.3566C10.7144 19.7649 10.2347 19.2852 9.64296 19.2852C9.05123 19.2852 8.57153 19.7649 8.57153 20.3566C8.57153 20.9483 9.05123 21.428 9.64296 21.428Z" stroke="white" stroke-width="1.5" stroke-linecap="round" stroke-linejoin="round"/>
<path d="M9.64286 13.9283C10.8263 13.9283 11.7857 12.9689 11.7857 11.7854C11.7857 10.602 10.8263 9.64258 9.64286 9.64258C8.45939 9.64258 7.5 10.602 7.5 11.7854C7.5 12.9689 8.45939 13.9283 9.64286 13.9283Z" stroke="white" stroke-width="1.5" stroke-linecap="round" stroke-linejoin="round"/>
<path d="M20.3999 26.3141C20.3761 25.8985 20.2316 25.4988 19.9843 25.1639C19.7369 24.829 19.3973 24.5735 19.0071 24.4284C18.0379 24.1099 17.2141 23.456 16.6839 22.5844C16.1536 21.7129 15.9517 20.6807 16.1144 19.6735C16.2771 18.6664 16.7937 17.7503 17.5714 17.09C18.3491 16.4297 19.3369 16.0685 20.3571 16.0713H24.3642C25.0515 16.0732 25.7292 15.9098 26.34 15.5949C26.9509 15.2799 27.4771 14.8227 27.8742 14.2617C28.2713 13.7008 28.5276 13.0525 28.6216 12.3717C28.7156 11.6909 28.6445 10.9974 28.4142 10.3499C27.5619 7.94337 26.0646 5.81741 24.0859 4.20425C22.1072 2.59109 19.7231 1.5528 17.1943 1.20281C14.6654 0.852813 12.089 1.20459 9.74653 2.21969C7.40405 3.2348 5.38562 4.87418 3.91177 6.95874C2.43791 9.0433 1.56532 11.4928 1.38934 14.0397C1.21335 16.5866 1.74075 19.1329 2.91389 21.4004C4.08704 23.6678 5.8608 25.5692 8.04141 26.8969C10.222 28.2245 12.7256 28.9273 15.2785 28.9284C16.5393 28.932 17.7943 28.7588 19.0071 28.4141C19.4525 28.2893 19.8382 28.0086 20.0939 27.6231C20.3496 27.2376 20.4582 26.773 20.3999 26.3141V26.3141Z" stroke="white" stroke-width="1.5" stroke-linecap="round" stroke-linejoin="round"/>
</g>
<defs>
<clipPath id="clip0_274_162">
<rect width="30" height="30" fill="white"/>
</clipPath>
</defs>
</svg>
