<svg width="30" height="30" viewBox="0 0 30 30" fill="none" xmlns="http://www.w3.org/2000/svg">
<g clip-path="url(#clip0_176_184)">
<path d="M10.7143 10.7141C13.3771 10.7141 15.5357 8.55552 15.5357 5.89272C15.5357 3.22992 13.3771 1.07129 10.7143 1.07129C8.05148 1.07129 5.89285 3.22992 5.89285 5.89272C5.89285 8.55552 8.05148 10.7141 10.7143 10.7141Z" stroke="white" stroke-width="1.5" stroke-linecap="round" stroke-linejoin="round"/>
<path d="M7.5 26.7855H1.07143V23.5712C1.08848 21.9379 1.51923 20.3355 2.32344 18.9138C3.12765 17.4922 4.27907 16.2975 5.67016 15.4414C7.06125 14.5854 8.64661 14.0959 10.2782 14.0186C11.9097 13.9414 13.5343 14.2789 15 14.9997" stroke="white" stroke-width="1.5" stroke-linecap="round" stroke-linejoin="round"/>
<path d="M28.9286 18.2143L18.8357 28.3072L14.2714 28.9286L14.9143 24.3643L24.9857 14.2715L28.9286 18.2143Z" stroke="white" stroke-width="1.5" stroke-linecap="round" stroke-linejoin="round"/>
</g>
<defs>
<clipPath id="clip0_176_184">
<rect width="30" height="30" fill="white"/>
</clipPath>
</defs>
</svg>
