<svg width="30" height="30" viewBox="0 0 30 30" fill="none" xmlns="http://www.w3.org/2000/svg">
<g clip-path="url(#clip0_281_34648)">
<path d="M14.9999 28.9285C11.8611 25.4729 7.60446 23.2345 2.97847 22.6071C2.45193 22.5488 1.96563 22.2976 1.61344 21.9019C1.26124 21.5062 1.06811 20.994 1.07133 20.4643V3.21425C1.07131 2.90474 1.13834 2.59889 1.26781 2.31776C1.39728 2.03662 1.58612 1.78687 1.82133 1.58568C2.0524 1.38816 2.32285 1.24205 2.61472 1.15708C2.90659 1.0721 3.2132 1.0502 3.51419 1.09283C7.93767 1.82698 11.9843 4.03149 14.9999 7.34997V28.9285Z" stroke="white" stroke-width="1.5" stroke-linecap="round" stroke-linejoin="round"/>
<path d="M15 28.9285C18.1388 25.4729 22.3954 23.2345 27.0214 22.6071C27.548 22.5488 28.0343 22.2976 28.3865 21.9019C28.7387 21.5062 28.9318 20.994 28.9286 20.4643V3.21425C28.9286 2.90474 28.8616 2.59889 28.7321 2.31776C28.6026 2.03662 28.4138 1.78687 28.1786 1.58568C27.9475 1.38816 27.6771 1.24205 27.3852 1.15708C27.0933 1.0721 26.7867 1.0502 26.4857 1.09283C22.0622 1.82698 18.0156 4.03149 15 7.34997V28.9285Z" stroke="white" stroke-width="1.5" stroke-linecap="round" stroke-linejoin="round"/>
</g>
<defs>
<clipPath id="clip0_281_34648">
<rect width="30" height="30" fill="white"/>
</clipPath>
</defs>
</svg>
