<svg width="30" height="30" viewBox="0 0 30 30" fill="none" xmlns="http://www.w3.org/2000/svg">
<g clip-path="url(#clip0_145_337)">
<path d="M10.7143 10.7143C13.3771 10.7143 15.5357 8.55564 15.5357 5.89284C15.5357 3.23004 13.3771 1.07141 10.7143 1.07141C8.05145 1.07141 5.89282 3.23004 5.89282 5.89284C5.89282 8.55564 8.05145 10.7143 10.7143 10.7143Z" stroke="white" stroke-width="1.5" stroke-linecap="round" stroke-linejoin="round"/>
<path d="M7.49998 26.7857H1.07141V23.5714C1.08847 21.9381 1.51922 20.3358 2.32342 18.9141C3.12763 17.4924 4.27905 16.2977 5.67014 15.4417C7.06123 14.5856 8.6466 14.0961 10.2782 14.0189C11.9097 13.9416 13.5342 14.2792 15 15" stroke="white" stroke-width="1.5" stroke-linecap="round" stroke-linejoin="round"/>
<path d="M28.9286 18.2142L18.8357 28.3071L14.2714 28.9285L14.9143 24.3642L24.9857 14.2714L28.9286 18.2142Z" stroke="white" stroke-width="1.5" stroke-linecap="round" stroke-linejoin="round"/>
</g>
<defs>
<clipPath id="clip0_145_337">
<rect width="30" height="30" fill="white"/>
</clipPath>
</defs>
</svg>
