<svg width="30" height="30" viewBox="0 0 30 30" fill="none" xmlns="http://www.w3.org/2000/svg">
<path d="M22.8 3.30005H7.19997C6.84032 3.30992 6.48804 3.4043 6.17162 3.57554C5.8552 3.74678 5.58352 3.99008 5.37854 4.28576L1.47854 9.68576C1.18895 10.095 1.04432 10.5892 1.06762 11.09C1.09091 11.5908 1.28079 12.0695 1.60711 12.45L13.3071 25.9286C13.5074 26.1867 13.7641 26.3956 14.0575 26.5393C14.3509 26.683 14.6733 26.7577 15 26.7577C15.3267 26.7577 15.649 26.683 15.9425 26.5393C16.2359 26.3956 16.4925 26.1867 16.6928 25.9286L28.3928 12.45C28.7192 12.0695 28.909 11.5908 28.9323 11.09C28.9556 10.5892 28.811 10.095 28.5214 9.68576L24.6214 4.28576C24.4164 3.99008 24.1447 3.74678 23.8283 3.57554C23.5119 3.4043 23.1596 3.30992 22.8 3.30005V3.30005Z" stroke="white" stroke-width="1.5" stroke-linecap="round" stroke-linejoin="round"/>
<path d="M13.8858 3.27856L8.65723 11.3786L15.0001 26.7" stroke="white" stroke-width="1.5" stroke-linecap="round" stroke-linejoin="round"/>
<path d="M16.1786 3.27856L21.3857 11.3786L15 26.7" stroke="white" stroke-width="1.5" stroke-linecap="round" stroke-linejoin="round"/>
<path d="M1.11426 11.3785H28.8857" stroke="white" stroke-width="1.5" stroke-linecap="round" stroke-linejoin="round"/>
</svg>
