<svg width="25" height="25" viewBox="0 0 25 25" fill="none" xmlns="http://www.w3.org/2000/svg">
<g clip-path="url(#clip0_891_227)">
<path d="M19.7579 15.4859C19.2461 14.953 18.6287 14.668 17.9745 14.668C17.3255 14.668 16.7028 14.9477 16.1699 15.4806L14.5026 17.1427C14.3654 17.0688 14.2282 17.0002 14.0963 16.9316C13.9063 16.8366 13.7269 16.7469 13.5739 16.652C12.0121 15.66 10.5927 14.3673 9.23142 12.6946C8.57187 11.861 8.12865 11.1592 7.80679 10.4469C8.23946 10.0512 8.64047 9.63959 9.03092 9.24386C9.17866 9.09612 9.3264 8.94311 9.47414 8.79537C10.5822 7.68732 10.5822 6.25213 9.47414 5.14408L8.03368 3.70362C7.87011 3.54005 7.70126 3.37121 7.54297 3.20236C7.22638 2.87522 6.89397 2.53753 6.551 2.22095C6.03919 1.71441 5.42713 1.44531 4.7834 1.44531C4.13968 1.44531 3.51706 1.71441 2.98942 2.22095C2.98414 2.22622 2.98414 2.22622 2.97887 2.2315L1.18488 4.04131C0.509502 4.71669 0.124323 5.53982 0.0399002 6.49485C-0.0867339 8.03556 0.367038 9.47075 0.715282 10.41C1.57006 12.7157 2.84696 14.8527 4.75174 17.1427C7.06282 19.9022 9.84349 22.0814 13.0199 23.6168C14.2335 24.192 15.8533 24.8726 17.6631 24.9887C17.774 24.994 17.89 24.9993 17.9956 24.9993C19.2144 24.9993 20.238 24.5613 21.0401 23.6907C21.0453 23.6802 21.0559 23.6749 21.0612 23.6643C21.3355 23.3319 21.6521 23.0312 21.9845 22.7093C22.2114 22.493 22.4436 22.2661 22.6705 22.0286C23.1928 21.4852 23.4672 20.852 23.4672 20.203C23.4672 19.5487 23.1876 18.9208 22.6546 18.3932L19.7579 15.4859ZM21.6468 21.0419C21.6416 21.0472 21.6416 21.0419 21.6468 21.0419C21.4411 21.2635 21.23 21.4641 21.0031 21.6857C20.6602 22.0128 20.3119 22.3558 19.9848 22.7409C19.4519 23.3108 18.824 23.5799 18.0008 23.5799C17.9217 23.5799 17.8373 23.5799 17.7581 23.5746C16.191 23.4744 14.7347 22.8623 13.6425 22.3399C10.6561 20.8942 8.03368 18.8417 5.85452 16.2404C4.05526 14.0718 2.85223 12.0667 2.05549 9.91397C1.56479 8.60014 1.38539 7.57651 1.46453 6.61093C1.5173 5.99359 1.75474 5.48177 2.19268 5.04383L3.99194 3.24457C4.25048 3.00186 4.52486 2.86995 4.79396 2.86995C5.12637 2.86995 5.39547 3.07045 5.56431 3.2393C5.56959 3.24457 5.57487 3.24985 5.58014 3.25513C5.902 3.55588 6.20804 3.86719 6.5299 4.1996C6.69347 4.36845 6.86231 4.5373 7.03116 4.71142L8.47162 6.15188C9.03092 6.71118 9.03092 7.22827 8.47162 7.78757C8.3186 7.94059 8.17086 8.0936 8.01785 8.24134C7.57463 8.69511 7.15252 9.11723 6.69347 9.52879C6.68291 9.53934 6.67236 9.54462 6.66708 9.55517C6.21331 10.0089 6.29774 10.4522 6.39271 10.7529C6.39799 10.7687 6.40326 10.7846 6.40854 10.8004C6.78317 11.708 7.31081 12.5627 8.11282 13.5811L8.1181 13.5864C9.57439 15.3803 11.1098 16.7786 12.8036 17.8497C13.0199 17.9869 13.2415 18.0977 13.4526 18.2032C13.6425 18.2982 13.8219 18.3879 13.9749 18.4829C13.996 18.4934 14.0171 18.5093 14.0382 18.5198C14.2176 18.6095 14.3865 18.6517 14.5606 18.6517C14.9986 18.6517 15.2729 18.3773 15.3626 18.2876L17.1672 16.4831C17.3466 16.3037 17.6315 16.0874 17.9639 16.0874C18.291 16.0874 18.5601 16.2932 18.7237 16.4726C18.729 16.4778 18.729 16.4778 18.7343 16.4831L21.6416 19.3904C22.185 19.9286 22.185 20.4826 21.6468 21.0419Z" fill="#FF7350"/>
<path d="M13.5106 5.94431C14.893 6.17648 16.1488 6.83075 17.1513 7.83327C18.1539 8.83579 18.8029 10.0916 19.0403 11.474C19.0983 11.8222 19.3991 12.065 19.7421 12.065C19.7843 12.065 19.8212 12.0597 19.8634 12.0544C20.2539 11.9911 20.5124 11.6217 20.4491 11.2313C20.1642 9.55866 19.3727 8.03378 18.1644 6.82548C16.9561 5.61718 15.4312 4.82571 13.7586 4.54079C13.3682 4.47747 13.0041 4.73601 12.9355 5.12119C12.8669 5.50637 13.1202 5.881 13.5106 5.94431Z" fill="#FF7350"/>
<path d="M24.971 11.028C24.5014 8.27373 23.2034 5.76743 21.2089 3.77295C19.2144 1.77846 16.7081 0.480461 13.9538 0.0108597C13.5686 -0.0577338 13.2046 0.206087 13.136 0.591266C13.0726 0.981721 13.3312 1.34579 13.7216 1.41439C16.1805 1.83122 18.4229 2.99731 20.2064 4.77547C21.9898 6.5589 23.1506 8.80138 23.5675 11.2602C23.6255 11.6084 23.9262 11.8511 24.2692 11.8511C24.3114 11.8511 24.3484 11.8459 24.3906 11.8406C24.7758 11.7826 25.0396 11.4132 24.971 11.028Z" fill="#FF7350"/>
</g>
<defs>
<clipPath id="clip0_891_227">
<rect width="25" height="25" fill="white"/>
</clipPath>
</defs>
</svg>
