<svg width="14" height="14" viewBox="0 0 14 14" fill="none" xmlns="http://www.w3.org/2000/svg">
<g clip-path="url(#clip0_523_10)">
<path fill-rule="evenodd" clip-rule="evenodd" d="M6.83491 0.473309C6.85672 0.399976 6.92431 0.349365 7.00098 0.349365C7.07764 0.349365 7.14523 0.399976 7.16705 0.473309C7.16705 0.473309 7.471 1.49214 7.79677 2.58492C8.31588 4.32591 9.67776 5.68779 11.4187 6.2069C12.5115 6.53267 13.5304 6.83662 13.5304 6.83662C13.6037 6.85844 13.6543 6.92602 13.6543 7.00269C13.6543 7.07936 13.6037 7.14694 13.5304 7.16876C13.5304 7.16876 12.5115 7.47271 11.4187 7.79849C9.67776 8.31759 8.31588 9.67948 7.79677 11.4205C7.471 12.5132 7.16705 13.5321 7.16705 13.5321C7.14523 13.6054 7.07764 13.656 7.00098 13.656C6.92431 13.656 6.85672 13.6054 6.83491 13.5321C6.83491 13.5321 6.53096 12.5132 6.20518 11.4205C5.68607 9.67948 4.32419 8.31759 2.5832 7.79849C1.49043 7.47271 0.4716 7.16876 0.4716 7.16876C0.398262 7.14694 0.347656 7.07936 0.347656 7.00269C0.347656 6.92602 0.398262 6.85844 0.4716 6.83662C0.4716 6.83662 1.49043 6.53267 2.5832 6.2069C4.32419 5.68779 5.68607 4.32591 6.20518 2.58492C6.53096 1.49214 6.83491 0.473309 6.83491 0.473309Z" fill="#FF7350"/>
</g>
<defs>
<clipPath id="clip0_523_10">
<rect width="14" height="14" fill="white"/>
</clipPath>
</defs>
</svg>
