<svg width="24" height="24" viewBox="0 0 24 24" fill="none" xmlns="http://www.w3.org/2000/svg">
<path d="M19.7142 8.57146C19.7142 12.84 11.9999 23.1429 11.9999 23.1429C11.9999 23.1429 4.28564 12.84 4.28564 8.57146C4.28564 6.52551 5.0984 4.56335 6.54511 3.11664C7.99182 1.66993 9.95397 0.857178 11.9999 0.857178C14.0459 0.857178 16.008 1.66993 17.4548 3.11664C18.9015 4.56335 19.7142 6.52551 19.7142 8.57146V8.57146Z" stroke="white" stroke-width="1.5" stroke-linecap="round" stroke-linejoin="round"/>
<path d="M12.0001 11.1429C13.4203 11.1429 14.5716 9.99159 14.5716 8.57143C14.5716 7.15127 13.4203 6 12.0001 6C10.58 6 9.42871 7.15127 9.42871 8.57143C9.42871 9.99159 10.58 11.1429 12.0001 11.1429Z" stroke="white" stroke-width="1.5" stroke-linecap="round" stroke-linejoin="round"/>
</svg>
