<svg width="30" height="30" viewBox="0 0 30 30" fill="none" xmlns="http://www.w3.org/2000/svg">
<g clip-path="url(#clip0_145_346)">
<path d="M18.2143 10.7143C19.3977 10.7143 20.3571 9.75491 20.3571 8.57145C20.3571 7.38798 19.3977 6.42859 18.2143 6.42859C17.0308 6.42859 16.0714 7.38798 16.0714 8.57145C16.0714 9.75491 17.0308 10.7143 18.2143 10.7143Z" stroke="white" stroke-width="1.5" stroke-linecap="round" stroke-linejoin="round"/>
<path d="M9.64284 21.4285C10.2346 21.4285 10.7143 20.9488 10.7143 20.3571C10.7143 19.7653 10.2346 19.2856 9.64284 19.2856C9.05111 19.2856 8.57141 19.7653 8.57141 20.3571C8.57141 20.9488 9.05111 21.4285 9.64284 21.4285Z" stroke="white" stroke-width="1.5" stroke-linecap="round" stroke-linejoin="round"/>
<path d="M9.64286 13.9285C10.8263 13.9285 11.7857 12.9691 11.7857 11.7857C11.7857 10.6022 10.8263 9.64282 9.64286 9.64282C8.45939 9.64282 7.5 10.6022 7.5 11.7857C7.5 12.9691 8.45939 13.9285 9.64286 13.9285Z" stroke="white" stroke-width="1.5" stroke-linecap="round" stroke-linejoin="round"/>
<path d="M20.3999 26.3143C20.3761 25.8986 20.2316 25.4989 19.9843 25.164C19.7369 24.8292 19.3973 24.5736 19.0071 24.4286C18.0379 24.11 17.2141 23.4562 16.6839 22.5846C16.1536 21.713 15.9517 20.6808 16.1144 19.6737C16.2771 18.6665 16.7937 17.7504 17.5714 17.0901C18.3491 16.4298 19.3369 16.0686 20.3571 16.0714H24.3642C25.0515 16.0733 25.7292 15.9099 26.34 15.595C26.9509 15.28 27.4771 14.8228 27.8742 14.2618C28.2713 13.7009 28.5276 13.0526 28.6216 12.3718C28.7156 11.691 28.6445 10.9976 28.4142 10.35C27.5619 7.94349 26.0646 5.81753 24.0859 4.20437C22.1072 2.59121 19.7231 1.55292 17.1943 1.20293C14.6654 0.852935 12.089 1.20471 9.74653 2.21981C7.40405 3.23492 5.38562 4.8743 3.91177 6.95886C2.43791 9.04342 1.56532 11.493 1.38934 14.0399C1.21335 16.5867 1.74075 19.133 2.91389 21.4005C4.08704 23.6679 5.8608 25.5694 8.04141 26.897C10.222 28.2246 12.7256 28.9274 15.2785 28.9286C16.5393 28.9321 17.7943 28.759 19.0071 28.4143C19.4525 28.2895 19.8382 28.0087 20.0939 27.6232C20.3496 27.2377 20.4582 26.7732 20.3999 26.3143V26.3143Z" stroke="white" stroke-width="1.5" stroke-linecap="round" stroke-linejoin="round"/>
</g>
<defs>
<clipPath id="clip0_145_346">
<rect width="30" height="30" fill="white"/>
</clipPath>
</defs>
</svg>
