<svg width="24" height="24" viewBox="0 0 24 24" fill="none" xmlns="http://www.w3.org/2000/svg">
<g clip-path="url(#clip0_321_79)">
<path d="M11.7768 16.2857C16.0373 16.2857 19.4911 12.8319 19.4911 8.57146C19.4911 4.31098 16.0373 0.857178 11.7768 0.857178C7.5163 0.857178 4.0625 4.31098 4.0625 8.57146C4.0625 12.8319 7.5163 16.2857 11.7768 16.2857Z" stroke="white" stroke-width="1.5" stroke-linecap="round" stroke-linejoin="round"/>
<path d="M11.7782 12.0001C13.6717 12.0001 15.2068 10.4651 15.2068 8.57152C15.2068 6.67797 13.6717 5.14294 11.7782 5.14294C9.88463 5.14294 8.34961 6.67797 8.34961 8.57152C8.34961 10.4651 9.88463 12.0001 11.7782 12.0001Z" stroke="white" stroke-width="1.5" stroke-linecap="round" stroke-linejoin="round"/>
<path d="M10.2858 16.1486L8.77724 22.4915C8.74739 22.612 8.6922 22.7248 8.61534 22.8224C8.53849 22.9199 8.44174 23 8.33153 23.0572C8.21521 23.1077 8.08976 23.1337 7.96296 23.1337C7.83615 23.1337 7.7107 23.1077 7.59439 23.0572L1.90296 20.5715C1.78358 20.5151 1.67853 20.4323 1.5957 20.3295C1.51288 20.2266 1.45443 20.1064 1.42473 19.9777C1.39504 19.849 1.39488 19.7153 1.42426 19.5866C1.45365 19.4578 1.51181 19.3374 1.59439 19.2344L6.0001 13.7144" stroke="white" stroke-width="1.5" stroke-linecap="round" stroke-linejoin="round"/>
<path d="M13.7148 16.0628L15.2577 22.4914C15.2884 22.614 15.3458 22.7283 15.4258 22.8261C15.5058 22.9239 15.6065 23.0028 15.7206 23.0571C15.8337 23.1082 15.9564 23.1347 16.0806 23.1347C16.2047 23.1347 16.3274 23.1082 16.4406 23.0571L22.0977 20.5714C22.2189 20.5156 22.3254 20.4324 22.4087 20.3282C22.492 20.224 22.5499 20.1019 22.5777 19.9714C22.6102 19.8438 22.6116 19.7102 22.5818 19.582C22.5519 19.4537 22.4917 19.3344 22.4063 19.2343L17.812 13.3885" stroke="white" stroke-width="1.5" stroke-linecap="round" stroke-linejoin="round"/>
</g>
<defs>
<clipPath id="clip0_321_79">
<rect width="24" height="24" fill="white"/>
</clipPath>
</defs>
</svg>
