<svg width="30" height="30" viewBox="0 0 30 30" fill="none" xmlns="http://www.w3.org/2000/svg">
<g clip-path="url(#clip0_385_7063)">
<path d="M10.7143 10.7151C13.3771 10.7151 15.5357 8.5565 15.5357 5.89369C15.5357 3.23089 13.3771 1.07227 10.7143 1.07227C8.05151 1.07227 5.89288 3.23089 5.89288 5.89369C5.89288 8.5565 8.05151 10.7151 10.7143 10.7151Z" stroke="white" stroke-width="1.5" stroke-linecap="round" stroke-linejoin="round"/>
<path d="M7.50001 26.7874H1.07144V23.5731C1.0885 21.9398 1.51925 20.3375 2.32346 18.9158C3.12766 17.4941 4.27908 16.2994 5.67017 15.4434C7.06126 14.5873 8.64663 14.0978 10.2782 14.0206C11.9098 13.9433 13.5343 14.2809 15 15.0017" stroke="white" stroke-width="1.5" stroke-linecap="round" stroke-linejoin="round"/>
<path d="M28.9286 18.2143L18.8357 28.3072L14.2715 28.9286L14.9143 24.3643L24.9857 14.2715L28.9286 18.2143Z" stroke="white" stroke-width="1.5" stroke-linecap="round" stroke-linejoin="round"/>
</g>
<defs>
<clipPath id="clip0_385_7063">
<rect width="30" height="30" fill="white"/>
</clipPath>
</defs>
</svg>
