<svg width="30" height="30" viewBox="0 0 30 30" fill="none" xmlns="http://www.w3.org/2000/svg">
<path d="M17.3145 24.2871C16.7051 23.6602 15.8731 23.3086 15 23.3086H14.9414C13.0899 23.3086 11.5957 24.8086 11.5957 26.6543C11.5957 28.5 13.0899 30 14.9414 30H15C16.8516 29.9707 18.3223 28.4473 18.293 26.5957C18.2754 25.7285 17.9238 24.9023 17.3145 24.2871ZM21.2461 2.30273C19.7695 0.785156 17.666 0.0117188 15 0H14.9414C12.832 0 11.0332 0.574219 9.59181 1.71094C8.90626 2.25 8.29689 2.87695 7.7754 3.57422C7.2715 4.25391 6.86134 5.00391 6.56837 5.80078C6.43947 6.1582 6.60353 6.55078 6.94923 6.70312L10.1074 8.0918C10.4707 8.25 10.8926 8.0918 11.0508 7.72852C11.0567 7.72266 11.0567 7.71094 11.0625 7.70508C11.3555 6.99023 11.8242 6.28711 12.457 5.61914C13.0195 5.02148 13.834 4.73438 14.9414 4.73438H15C16.1367 4.74609 16.9863 5.04492 17.5957 5.6543C18.2109 6.27539 18.5098 7.02539 18.5098 7.96289C18.5098 8.74805 18.2754 9.46875 17.7949 10.166C17.2676 10.9336 16.4883 11.7832 15.4805 12.6914C15.3164 12.8438 15.1524 12.9902 15.0059 13.1367C14.1094 14.0156 13.4883 14.8301 13.1192 15.6211C12.9024 16.084 12.7383 16.6641 12.6211 17.3672C12.4981 18.1934 12.4336 19.0254 12.4336 19.8633C12.4277 20.2617 12.7442 20.584 13.1367 20.5957H13.1543H16.916C17.3086 20.5957 17.625 20.2852 17.6309 19.8926C17.6602 18.293 17.8418 17.5137 17.9942 17.1387C18.1406 16.7754 18.6152 16.0547 20.0391 14.6836C21.2168 13.5586 22.0957 12.457 22.6406 11.4141C23.2031 10.3359 23.4902 9.12305 23.4902 7.81055C23.4785 5.68359 22.7285 3.82617 21.2461 2.30273Z" fill="white"/>
</svg>
