<svg width="24" height="24" viewBox="0 0 24 24" fill="none" xmlns="http://www.w3.org/2000/svg">
<g clip-path="url(#clip0_202_21399)">
<path d="M5.57146 10.284C8.17509 10.284 10.2857 8.17338 10.2857 5.56975C10.2857 2.96613 8.17509 0.855469 5.57146 0.855469C2.96784 0.855469 0.857178 2.96613 0.857178 5.56975C0.857178 8.17338 2.96784 10.284 5.57146 10.284Z" stroke="white" stroke-width="1.5" stroke-linecap="round" stroke-linejoin="round"/>
<path d="M18.4286 10.284C21.0323 10.284 23.1429 8.17338 23.1429 5.56975C23.1429 2.96613 21.0323 0.855469 18.4286 0.855469C15.825 0.855469 13.7144 2.96613 13.7144 5.56975C13.7144 8.17338 15.825 10.284 18.4286 10.284Z" stroke="white" stroke-width="1.5" stroke-linecap="round" stroke-linejoin="round"/>
<path d="M5.57146 23.1395C8.17509 23.1395 10.2857 21.0289 10.2857 18.4252C10.2857 15.8216 8.17509 13.7109 5.57146 13.7109C2.96784 13.7109 0.857178 15.8216 0.857178 18.4252C0.857178 21.0289 2.96784 23.1395 5.57146 23.1395Z" stroke="white" stroke-width="1.5" stroke-linecap="round" stroke-linejoin="round"/>
<path d="M18.4286 23.1395C21.0323 23.1395 23.1429 21.0289 23.1429 18.4252C23.1429 15.8216 21.0323 13.7109 18.4286 13.7109C15.825 13.7109 13.7144 15.8216 13.7144 18.4252C13.7144 21.0289 15.825 23.1395 18.4286 23.1395Z" stroke="white" stroke-width="1.5" stroke-linecap="round" stroke-linejoin="round"/>
</g>
<defs>
<clipPath id="clip0_202_21399">
<rect width="24" height="24" fill="white"/>
</clipPath>
</defs>
</svg>
