<svg width="24" height="24" viewBox="0 0 24 24" fill="none" xmlns="http://www.w3.org/2000/svg">
<g clip-path="url(#clip0_385_9435)">
<path d="M8.57144 8.57171C10.7017 8.57171 12.4286 6.84481 12.4286 4.71456C12.4286 2.58432 10.7017 0.857422 8.57144 0.857422C6.4412 0.857422 4.71429 2.58432 4.71429 4.71456C4.71429 6.84481 6.4412 8.57171 8.57144 8.57171Z" stroke="white" stroke-width="1.5" stroke-linecap="round" stroke-linejoin="round"/>
<path d="M6 21.4291H0.857147V18.8577C0.870794 17.5511 1.21539 16.2692 1.85876 15.1319C2.50212 13.9945 3.42326 13.0388 4.53613 12.3539C5.649 11.6691 6.9173 11.2775 8.22255 11.2157C9.5278 11.1539 10.8274 11.4239 12 12.0006" stroke="white" stroke-width="1.5" stroke-linecap="round" stroke-linejoin="round"/>
<path d="M23.1429 14.5723L15.0686 22.6465L11.4171 23.1437L11.9314 19.4923L19.9886 11.418L23.1429 14.5723Z" stroke="white" stroke-width="1.5" stroke-linecap="round" stroke-linejoin="round"/>
</g>
<defs>
<clipPath id="clip0_385_9435">
<rect width="24" height="24" fill="white"/>
</clipPath>
</defs>
</svg>
