<svg width="30" height="30" viewBox="0 0 30 30" fill="none" xmlns="http://www.w3.org/2000/svg">
<g clip-path="url(#clip0_385_7079)">
<path d="M15 28.9294C22.6925 28.9294 28.9286 22.6934 28.9286 15.0008C28.9286 7.3083 22.6925 1.07227 15 1.07227C7.30744 1.07227 1.07141 7.3083 1.07141 15.0008C1.07141 22.6934 7.30744 28.9294 15 28.9294Z" stroke="white" stroke-width="1.5" stroke-linecap="round" stroke-linejoin="round"/>
<path d="M15 20.3588C17.9586 20.3588 20.3571 17.9603 20.3571 15.0017C20.3571 12.043 17.9586 9.64453 15 9.64453C12.0413 9.64453 9.64282 12.043 9.64282 15.0017C9.64282 17.9603 12.0413 20.3588 15 20.3588Z" stroke="white" stroke-width="1.5" stroke-linecap="round" stroke-linejoin="round"/>
<path d="M9.64282 15.0017V2.14453" stroke="white" stroke-width="1.5" stroke-linecap="round" stroke-linejoin="round"/>
<path d="M15 9.64453H27.8571" stroke="white" stroke-width="1.5" stroke-linecap="round" stroke-linejoin="round"/>
<path d="M20.3572 15V27.8571" stroke="white" stroke-width="1.5" stroke-linecap="round" stroke-linejoin="round"/>
<path d="M15 20.3574H2.14282" stroke="white" stroke-width="1.5" stroke-linecap="round" stroke-linejoin="round"/>
</g>
<defs>
<clipPath id="clip0_385_7079">
<rect width="30" height="30" fill="white"/>
</clipPath>
</defs>
</svg>
