<svg width="30" height="30" viewBox="0 0 30 30" fill="none" xmlns="http://www.w3.org/2000/svg">
<path d="M10.7143 10.7141C13.3771 10.7141 15.5357 8.55552 15.5357 5.89272C15.5357 3.22992 13.3771 1.07129 10.7143 1.07129C8.05151 1.07129 5.89288 3.22992 5.89288 5.89272C5.89288 8.55552 8.05151 10.7141 10.7143 10.7141Z" stroke="white" stroke-width="1.5" stroke-linecap="round" stroke-linejoin="round"/>
<path d="M7.50001 26.7855H1.07144V23.5712C1.0885 21.9379 1.51925 20.3355 2.32346 18.9138C3.12766 17.4922 4.27908 16.2975 5.67017 15.4414C7.06126 14.5854 8.64663 14.0959 10.2782 14.0186C11.9098 13.9414 13.5343 14.2789 15 14.9997" stroke="white" stroke-width="1.5" stroke-linecap="round" stroke-linejoin="round"/>
<path d="M28.9286 18.2143L18.8357 28.3072L14.2715 28.9286L14.9143 24.3643L24.9857 14.2715L28.9286 18.2143Z" stroke="white" stroke-width="1.5" stroke-linecap="round" stroke-linejoin="round"/>
</svg>
