<svg width="40" height="40" viewBox="0 0 40 40" fill="none" xmlns="http://www.w3.org/2000/svg">
<path fill-rule="evenodd" clip-rule="evenodd" d="M12.5763 23.8479C11.5632 25.2672 9.64822 26.7952 7.04124 28.0672C6.36375 28.3978 6.66938 29.4223 7.41725 29.3277C12.8948 28.6349 16.4451 26.2359 18.3838 22.6684C19.1049 21.3416 19.5579 19.9293 19.7992 18.4875C19.9582 17.537 20.0003 16.8236 20.0003 15.9997C20.0003 12.3178 17.0155 9.33301 13.3336 9.33301C9.6517 9.33301 6.66693 12.3178 6.66693 15.9997C6.66693 19.6816 9.69932 22.6684 13.184 22.6684C13.0002 23.1732 12.956 23.3158 12.5763 23.8479ZM27.2429 23.8479C26.2298 25.2672 24.3149 26.7952 21.7079 28.0672C21.0304 28.3978 21.336 29.4223 22.0839 29.3277C27.5614 28.6349 31.1117 26.2359 33.0505 22.6684C33.7715 21.3416 34.2246 19.9293 34.4658 18.4875C34.6249 17.537 34.6669 16.8236 34.6669 15.9997C34.6669 12.3178 31.6822 9.33301 28.0003 9.33301C24.3184 9.33301 21.3336 12.3178 21.3336 15.9997C21.3336 19.6816 24.366 22.6684 27.8507 22.6684C27.6668 23.1732 27.6227 23.3158 27.2429 23.8479Z" fill="#FF7149"/>
</svg>
