<svg width="40" height="40" viewBox="0 0 40 40" fill="none" xmlns="http://www.w3.org/2000/svg">
<path d="M10.8333 5C16.157 5 20 9.39508 19.9998 15.9027C19.9657 25.3579 12.8578 32.0431 2.60349 33.3269C1.65214 33.446 1.28531 32.1281 2.16139 31.7386C6.09604 29.989 8.08324 27.7689 8.33991 25.5714C8.53168 23.9296 7.63919 22.4915 6.51852 22.2222C3.61322 21.524 1.66664 17.906 1.66664 14.1667C1.66664 9.10406 5.77069 5 10.8333 5Z" fill="#125875"/>
<path d="M30.8333 5C36.157 5 40 9.39508 39.9998 15.9027C39.9658 25.3579 32.8578 32.0431 22.6035 33.3269C21.6521 33.446 21.2853 32.1281 22.1614 31.7386C26.096 29.989 28.0832 27.7689 28.3399 25.5714C28.5317 23.9296 27.6392 22.4915 26.5185 22.2222C23.6132 21.524 21.6666 17.906 21.6666 14.1667C21.6666 9.10406 25.7707 5 30.8333 5Z" fill="#125875"/>
</svg>
