<svg width="220" height="220" viewBox="0 0 220 220" fill="none" xmlns="http://www.w3.org/2000/svg">
<circle cx="110" cy="110" r="110" fill="#125875"/>
<circle cx="110" cy="110" r="33" fill="white"/>
<path d="M109.605 126.571C113.985 118.984 120.743 113.334 130.424 116.836C128.883 125.474 120.579 131.171 111.985 129.511C113.152 126.861 116.227 120.896 123.871 120.896C118.645 119.495 111.79 123.229 109.605 129.012C107.419 123.229 100.564 119.495 95.3376 120.896C102.982 120.896 106.057 126.861 107.224 129.511C98.6304 131.171 90.3262 125.474 88.7852 116.836C98.4663 113.334 105.224 118.984 109.605 126.571Z" fill="#101828"/>
<path d="M109.604 110.517C109.604 110.517 117.598 101.055 132.968 101.055L127.586 114.202C117.437 111.611 109.604 123.511 109.604 123.511C109.604 123.511 101.771 111.611 91.6225 114.202L86.24 101.055C101.61 101.055 109.604 110.517 109.604 110.517Z" fill="#125875"/>
<path d="M109.604 108.891C109.604 108.891 105.942 104.21 98.8023 100.871C99.094 100.408 99.4106 99.9646 99.75 99.5431L97.324 95.9203L100.193 99.02C100.87 98.2595 101.625 97.581 102.444 96.9994L100.473 93.3102L103.002 96.6251C103.846 96.089 104.752 95.6526 105.704 95.3309L105.341 91.1317L106.335 95.1365C107.278 94.8736 108.263 94.7217 109.276 94.6947L109.604 90.1992L109.932 94.6947C110.946 94.7217 111.93 94.8736 112.874 95.1365L113.867 91.1317L113.505 95.3309C114.457 95.6526 115.362 96.089 116.207 96.6251L118.736 93.3102L116.764 96.9994C117.583 97.581 118.338 98.2595 119.015 99.02L121.884 95.9203L119.458 99.5431C119.798 99.9646 120.114 100.408 120.406 100.871C113.266 104.21 109.604 108.891 109.604 108.891Z" fill="#FF7350"/>
<path d="M113.041 110.773C117.805 107.238 122.49 105.443 127.262 104.768C121.368 104.549 116.133 107.786 113.041 110.773Z" fill="white"/>
<path d="M106.167 110.773C101.403 107.238 96.718 105.443 91.946 104.768C97.84 104.549 103.075 107.786 106.167 110.773Z" fill="white"/>
<path d="M113.041 113.367C117.805 109.832 122.49 108.036 127.262 107.362C121.368 107.142 116.133 110.379 113.041 113.367Z" fill="white"/>
<path d="M106.167 113.367C101.403 109.832 96.718 108.036 91.946 107.362C97.84 107.142 103.075 110.379 106.167 113.367Z" fill="white"/>
<path d="M113.041 115.961C117.805 112.425 122.49 110.63 127.262 109.956C121.368 109.736 116.133 112.973 113.041 115.961Z" fill="white"/>
<path d="M106.167 115.961C101.403 112.425 96.718 110.63 91.946 109.956C97.84 109.736 103.075 112.973 106.167 115.961Z" fill="white"/>
<path d="M118.918 39.5519C117.374 39.3682 116.05 38.861 114.947 38.0302C113.861 37.1863 113.063 36.1027 112.551 34.7795C112.054 33.4581 111.904 31.9726 112.1 30.323C112.248 29.0783 112.562 27.975 113.041 27.013C113.537 26.0379 114.174 25.2239 114.951 24.5711C115.73 23.9034 116.623 23.4316 117.629 23.1558C118.637 22.8651 119.726 22.7893 120.895 22.9284C122.095 23.0711 123.132 23.3693 124.006 23.8231C124.879 24.2768 125.591 24.8785 126.141 25.6283C126.692 26.363 127.06 27.2356 127.244 28.2461L123.455 29.0273C123.287 28.1404 122.941 27.4681 122.417 27.0104C121.911 26.5395 121.245 26.255 120.42 26.1569C119.685 26.0695 119.016 26.2028 118.411 26.5567C117.823 26.8974 117.342 27.4257 116.968 28.1416C116.593 28.8575 116.343 29.7479 116.216 30.8126C116.092 31.8624 116.126 32.7866 116.32 33.5853C116.516 34.369 116.859 35.0029 117.349 35.487C117.855 35.9579 118.484 36.238 119.233 36.3272C120.073 36.4271 120.796 36.2925 121.403 35.9237C122.025 35.5565 122.521 34.9616 122.893 34.1389L126.439 35.5873C126.031 36.5882 125.469 37.4111 124.754 38.056C124.055 38.6877 123.211 39.1348 122.222 39.3973C121.249 39.6467 120.148 39.6982 118.918 39.5519Z" fill="white"/>
<path d="M133.63 43.0022C132.405 42.5717 131.431 41.9494 130.709 41.1354C129.991 40.307 129.541 39.3565 129.358 38.2836C129.174 37.2108 129.288 36.0902 129.698 34.9218C130.114 33.7392 130.729 32.7867 131.543 32.0642C132.357 31.3418 133.3 30.8889 134.373 30.7056C135.451 30.508 136.602 30.6245 137.828 31.055C139.053 31.4855 140.025 32.1149 140.742 32.9432C141.479 33.7622 141.932 34.7057 142.101 35.7735C142.284 36.8464 142.168 37.9741 141.752 39.1567C141.342 40.3251 140.73 41.2705 139.916 41.9929C139.116 42.7204 138.177 43.1829 137.099 43.3805C136.026 43.5638 134.87 43.4377 133.63 43.0022ZM134.547 40.3947C135.045 40.5699 135.513 40.6061 135.949 40.5033C136.39 40.3862 136.791 40.1109 137.152 39.6773C137.531 39.2344 137.854 38.6354 138.119 37.8802C138.389 37.1108 138.512 36.4417 138.488 35.873C138.483 35.295 138.343 34.8294 138.066 34.4763C137.795 34.1089 137.41 33.8376 136.912 33.6624C136.427 33.4922 135.957 33.4631 135.502 33.5752C135.065 33.678 134.66 33.9438 134.285 34.3724C133.911 34.801 133.586 35.4071 133.31 36.1908C133.045 36.9459 132.922 37.615 132.941 38.1981C132.965 38.7668 133.113 39.2349 133.384 39.6023C133.675 39.9604 134.062 40.2245 134.547 40.3947Z" fill="white"/>
<path d="M148.162 49.7867L151.828 43.5592C152.211 42.9085 152.351 42.3427 152.249 41.8618C152.167 41.3755 151.892 40.9945 151.423 40.7187C150.877 40.3969 150.35 40.3237 149.844 40.4988C149.338 40.674 148.901 41.074 148.533 41.6987L144.902 47.8676L141.681 45.9714L147.829 35.5272L150.796 37.274L149.842 38.8943L149.94 38.9518C150.558 38.527 151.229 38.309 151.955 38.2977C152.68 38.2865 153.4 38.4915 154.116 38.9129C154.832 39.3342 155.366 39.8413 155.718 40.4341C156.09 41.0215 156.254 41.6961 156.209 42.458C156.163 43.2199 155.869 44.0628 155.325 44.9869L151.383 51.6829L148.162 49.7867Z" fill="white"/>
<path d="M156.466 56.3078C155.521 55.5308 154.985 54.7086 154.858 53.8412C154.73 52.9738 155.026 52.1027 155.746 51.2279L162.869 42.5676L166.705 43.7873L158.978 53.1824C158.738 53.474 158.632 53.7579 158.659 54.0343C158.695 54.2989 158.847 54.5416 159.116 54.7622C159.232 54.8582 159.364 54.9472 159.512 55.0294C159.659 55.1116 159.813 55.1986 159.972 55.2904L158.288 57.3374C157.943 57.2101 157.623 57.0642 157.328 56.8998C157.033 56.7354 156.746 56.5381 156.466 56.3078ZM158.289 45.2829L159.915 43.3059L165.846 48.1841L164.22 50.1611L158.289 45.2829Z" fill="white"/>
<path d="M162.011 61.7666C161.207 60.8652 160.8 59.9222 160.792 58.9377C160.805 57.9544 161.206 57.1108 161.995 56.407C162.761 55.7232 163.623 55.4193 164.582 55.4952C165.55 55.5824 166.642 56.1365 167.856 57.1575L170.89 59.6725L169.386 61.0149L167.053 59.1494C166.583 58.7591 166.142 58.536 165.728 58.4804C165.325 58.4147 164.943 58.5427 164.583 58.8645C164.267 59.1461 164.104 59.4737 164.094 59.8475C164.093 60.2325 164.269 60.6222 164.621 61.0166C164.902 61.3321 165.216 61.5478 165.563 61.6638C165.92 61.7697 166.295 61.7696 166.686 61.6635C167.077 61.5574 167.464 61.3334 167.847 60.9915L170.484 58.6386C170.867 58.2968 171.065 57.9176 171.078 57.5012C171.112 57.086 170.938 56.6643 170.556 56.2362C170.234 55.8756 169.883 55.6524 169.503 55.5666C169.133 55.4921 168.722 55.5756 168.27 55.8173L166.512 52.8615C167.546 52.3641 168.599 52.2849 169.671 52.624C170.752 52.9743 171.731 53.6396 172.605 54.62C173.802 55.9609 174.372 57.2233 174.315 58.4074C174.27 59.5814 173.718 60.6409 172.658 61.5861L168.501 65.2964L167.387 67.383L164.883 64.5773L165.669 63.178L165.563 63.0597C164.924 63.2051 164.295 63.1694 163.676 62.9523C163.079 62.7365 162.524 62.3413 162.011 61.7666Z" fill="white"/>
<path d="M171.061 73.8929C170.438 72.8753 170.112 71.8356 170.082 70.7739C170.06 69.7251 170.317 68.727 170.852 67.7796C171.388 66.8321 172.197 66.0273 173.279 65.3652C174.361 64.7031 175.446 64.3491 176.533 64.3034C177.621 64.2577 178.62 64.4873 179.531 64.9922C180.462 65.5021 181.24 66.2659 181.862 67.2835C182.611 68.5073 182.975 69.6658 182.953 70.759C182.932 71.8522 182.53 72.8594 181.748 73.7805L179.176 71.5301C179.596 71.0602 179.824 70.5933 179.859 70.1293C179.915 69.6704 179.808 69.222 179.54 68.784C179.296 68.3846 178.963 68.1013 178.542 67.9341C178.121 67.7668 177.63 67.7309 177.069 67.8265C176.516 67.9349 175.91 68.1901 175.253 68.5921C174.596 68.9941 174.087 69.4207 173.726 69.8719C173.386 70.3282 173.194 70.7818 173.151 71.2329C173.109 71.6839 173.209 72.1091 173.454 72.5084C173.73 72.9593 174.091 73.2605 174.538 73.412C174.992 73.5764 175.525 73.5782 176.135 73.4175L176.956 76.7127C175.788 77.0026 174.699 76.9163 173.69 76.4537C172.694 75.9832 171.818 75.1296 171.061 73.8929Z" fill="white"/>
<path d="M176.317 84.5538C175.844 83.4255 175.754 82.4481 176.047 81.6216C176.339 80.7951 177.008 80.163 178.052 79.7255L188.395 75.3937L191.218 78.2637L179.998 82.9631C179.65 83.1089 179.423 83.3103 179.318 83.5672C179.226 83.8183 179.248 84.1041 179.382 84.4244C179.44 84.5637 179.515 84.7042 179.607 84.8457C179.7 84.9873 179.794 85.1358 179.892 85.2913L177.448 86.3152C177.202 86.0415 176.987 85.7631 176.803 85.4799C176.619 85.1968 176.457 84.8881 176.317 84.5538ZM183.077 75.6561L185.439 74.6672L188.405 81.7505L186.044 82.7394L183.077 75.6561Z" fill="white"/>
<path d="M180.435 101.925C180.261 100.546 180.367 99.3307 180.752 98.2776C181.154 97.2377 181.779 96.3979 182.627 95.7584C183.49 95.1171 184.543 94.7181 185.787 94.5615L195.833 93.2969L196.314 97.1178L186.425 98.3626C185.751 98.4475 185.195 98.6316 184.759 98.9148C184.323 99.198 184.01 99.557 183.822 99.9917C183.635 100.441 183.577 100.951 183.649 101.52C183.72 102.09 183.902 102.562 184.192 102.936C184.483 103.31 184.875 103.581 185.367 103.747C185.86 103.913 186.444 103.954 187.118 103.869L197.007 102.624L197.488 106.445L187.442 107.71C186.198 107.866 185.079 107.741 184.084 107.333C183.104 106.924 182.289 106.258 181.64 105.335C181.008 104.425 180.606 103.289 180.435 101.925Z" fill="white"/>
<path d="M180.822 116.013C180.929 114.537 181.295 113.352 181.921 112.459C182.545 111.581 183.362 111.065 184.372 110.911L184.773 114.46C184.251 114.559 183.857 114.772 183.591 115.101C183.339 115.446 183.194 115.883 183.156 116.41C183.118 116.922 183.195 117.329 183.385 117.63C183.59 117.933 183.889 118.098 184.28 118.127C184.612 118.151 184.89 118.072 185.115 117.892C185.339 117.727 185.518 117.444 185.653 117.045L186.491 114.585C186.801 113.638 187.247 112.921 187.828 112.433C188.422 111.962 189.149 111.757 190.007 111.819C190.76 111.874 191.407 112.14 191.948 112.619C192.489 113.097 192.889 113.739 193.148 114.546C193.408 115.352 193.5 116.275 193.424 117.314C193.36 118.203 193.189 118.993 192.912 119.684C192.634 120.376 192.268 120.94 191.812 121.376C191.357 121.812 190.83 122.077 190.233 122.17L189.733 118.727C190.165 118.622 190.49 118.418 190.709 118.116C190.926 117.829 191.052 117.46 191.084 117.008C191.118 116.541 191.047 116.172 190.869 115.902C190.706 115.648 190.444 115.508 190.082 115.481C189.841 115.464 189.616 115.539 189.407 115.705C189.198 115.872 189.018 116.169 188.866 116.597L188.079 118.993C187.884 119.584 187.628 120.096 187.309 120.527C186.989 120.973 186.586 121.307 186.1 121.529C185.63 121.753 185.063 121.84 184.4 121.792C183.572 121.732 182.872 121.462 182.302 120.981C181.746 120.502 181.34 119.836 181.084 118.985C180.826 118.149 180.739 117.158 180.822 116.013Z" fill="white"/>
<path d="M192.914 137.806L192.089 140.205L189.521 139.036L190.342 141.737L187.83 142.215L187.576 139.398L185.645 141.465L183.957 139.544L186.265 137.917L183.52 137.262L184.344 134.862L186.926 136.06L186.099 133.309L188.603 132.852L188.857 135.67L190.788 133.603L192.483 135.502L190.14 137.164L192.914 137.806Z" fill="white"/>
<path d="M166.898 152.901C167.81 151.641 168.896 150.73 170.158 150.17C171.423 149.631 172.758 149.459 174.164 149.655C175.56 149.863 176.931 150.453 178.278 151.426C179.294 152.161 180.106 152.971 180.713 153.857C181.325 154.765 181.727 155.717 181.919 156.713C182.124 157.719 182.103 158.728 181.855 159.742C181.62 160.764 181.157 161.752 180.467 162.707C179.759 163.686 178.995 164.447 178.174 164.991C177.352 165.534 176.481 165.863 175.558 165.979C174.648 166.104 173.707 166.002 172.734 165.671L173.892 161.981C174.749 162.264 175.505 162.289 176.159 162.054C176.817 161.84 177.389 161.396 177.876 160.723C178.309 160.123 178.518 159.473 178.503 158.772C178.491 158.093 178.263 157.416 177.819 156.741C177.375 156.066 176.719 155.414 175.85 154.786C174.993 154.167 174.168 153.748 173.376 153.53C172.596 153.32 171.875 153.312 171.214 153.505C170.556 153.719 170.006 154.132 169.564 154.744C169.068 155.429 168.835 156.127 168.862 156.836C168.881 157.558 169.16 158.281 169.698 159.005L166.709 161.401C166.033 160.558 165.586 159.667 165.37 158.728C165.158 157.811 165.177 156.856 165.428 155.864C165.683 154.892 166.173 153.905 166.898 152.901Z" fill="white"/>
<path d="M156.735 164.105C157.705 163.241 158.721 162.69 159.783 162.452C160.855 162.225 161.905 162.291 162.932 162.65C163.96 163.009 164.885 163.651 165.709 164.576C166.543 165.512 167.078 166.511 167.317 167.573C167.555 168.635 167.494 169.68 167.135 170.707C166.786 171.746 166.127 172.697 165.157 173.561C164.187 174.425 163.166 174.97 162.094 175.197C161.021 175.445 159.976 175.385 158.96 175.016C157.932 174.657 157.002 174.009 156.168 173.073C155.344 172.148 154.813 171.155 154.575 170.093C154.326 169.041 154.376 167.996 154.725 166.957C155.084 165.929 155.754 164.979 156.735 164.105ZM158.573 166.169C158.178 166.52 157.92 166.912 157.799 167.343C157.688 167.786 157.735 168.27 157.94 168.795C158.143 169.342 158.511 169.914 159.044 170.512C159.586 171.121 160.112 171.552 160.621 171.807C161.13 172.082 161.605 172.184 162.048 172.114C162.5 172.054 162.924 171.849 163.319 171.497C163.702 171.156 163.955 170.759 164.078 170.306C164.199 169.874 164.163 169.391 163.969 168.855C163.775 168.32 163.402 167.742 162.85 167.122C162.318 166.524 161.792 166.093 161.272 165.827C160.763 165.573 160.282 165.476 159.829 165.535C159.375 165.616 158.956 165.827 158.573 166.169Z" fill="white"/>
<path d="M143.773 173.548L147.457 179.765C147.842 180.415 148.269 180.811 148.74 180.953C149.205 181.116 149.672 181.059 150.139 180.782C150.685 180.459 151.004 180.033 151.094 179.506C151.185 178.978 151.046 178.402 150.677 177.778L147.028 171.62L150.244 169.714L156.421 180.141L153.459 181.896L152.5 180.279L152.403 180.336C152.477 181.083 152.343 181.776 152.003 182.417C151.663 183.057 151.135 183.589 150.421 184.012C149.706 184.436 149.004 184.658 148.315 184.681C147.621 184.723 146.951 184.541 146.306 184.133C145.661 183.726 145.065 183.061 144.518 182.138L140.557 175.453L143.773 173.548Z" fill="white"/>
<path d="M134.036 177.671C135.173 177.22 136.152 177.149 136.973 177.457C137.794 177.765 138.413 178.446 138.83 179.499L142.963 189.923L140.039 192.69L135.556 181.381C135.417 181.03 135.22 180.8 134.965 180.69C134.716 180.594 134.43 180.61 134.107 180.738C133.966 180.793 133.824 180.866 133.681 180.955C133.538 181.044 133.387 181.136 133.23 181.231L132.253 178.767C132.532 178.527 132.814 178.318 133.101 178.139C133.387 177.96 133.699 177.804 134.036 177.671ZM142.802 184.601L143.746 186.98L136.607 189.81L135.664 187.431L142.802 184.601Z" fill="white"/>
<path d="M126.557 179.881C127.735 179.616 128.757 179.719 129.621 180.19C130.474 180.679 131.017 181.44 131.249 182.471C131.474 183.473 131.321 184.374 130.789 185.175C130.242 185.979 129.228 186.664 127.745 187.23L124.073 188.659L123.631 186.692L126.394 185.56C126.964 185.339 127.374 185.061 127.623 184.726C127.876 184.406 127.95 184.01 127.844 183.539C127.751 183.126 127.544 182.825 127.222 182.634C126.886 182.446 126.46 182.41 125.944 182.526C125.532 182.619 125.191 182.789 124.921 183.035C124.655 183.296 124.473 183.624 124.376 184.017C124.278 184.41 124.286 184.858 124.399 185.359L125.174 188.806C125.287 189.307 125.522 189.665 125.88 189.878C126.226 190.11 126.679 190.163 127.239 190.037C127.71 189.931 128.076 189.732 128.336 189.442C128.581 189.155 128.707 188.755 128.716 188.242L132.153 188.142C132.086 189.287 131.643 190.246 130.826 191.018C129.995 191.793 128.938 192.325 127.656 192.613C125.903 193.008 124.522 192.893 123.515 192.268C122.511 191.658 121.853 190.66 121.541 189.275L120.318 183.838L119.036 181.852L122.704 181.026L123.546 182.393L123.701 182.358C123.884 181.728 124.221 181.196 124.711 180.761C125.19 180.343 125.805 180.05 126.557 179.881Z" fill="white"/>
<path d="M111.581 181.892C112.773 181.842 113.84 182.062 114.783 182.552C115.71 183.042 116.458 183.752 117.026 184.68C117.593 185.609 117.904 186.707 117.957 187.974C118.01 189.242 117.792 190.362 117.303 191.335C116.815 192.307 116.129 193.069 115.245 193.62C114.346 194.186 113.301 194.494 112.109 194.544C110.676 194.604 109.487 194.359 108.542 193.809C107.597 193.259 106.911 192.418 106.486 191.287L109.703 190.133C109.909 190.729 110.207 191.155 110.595 191.41C110.969 191.682 111.413 191.807 111.926 191.786C112.394 191.766 112.803 191.613 113.154 191.326C113.505 191.04 113.775 190.628 113.964 190.091C114.138 189.555 114.209 188.902 114.177 188.132C114.145 187.363 114.019 186.71 113.8 186.175C113.567 185.656 113.264 185.268 112.89 185.012C112.517 184.755 112.096 184.637 111.628 184.656C111.1 184.678 110.662 184.848 110.312 185.165C109.947 185.482 109.687 185.946 109.531 186.558L106.252 185.674C106.566 184.512 107.171 183.603 108.065 182.946C108.961 182.304 110.133 181.953 111.581 181.892Z" fill="white"/>
<path d="M99.6084 181.31C100.824 181.444 101.723 181.839 102.304 182.496C102.885 183.152 103.113 184.044 102.989 185.17L101.76 196.315L97.8809 197.392L99.214 185.3C99.2554 184.925 99.1892 184.629 99.0156 184.412C98.8403 184.211 98.5801 184.091 98.2348 184.053C98.0847 184.036 97.9254 184.034 97.757 184.046C97.5886 184.058 97.4126 184.069 97.2292 184.079L97.5196 181.444C97.8781 181.362 98.2258 181.309 98.5627 181.286C98.8995 181.262 99.2481 181.27 99.6084 181.31ZM104.11 191.538L103.829 194.082L96.1963 193.241L96.4768 190.696L104.11 191.538Z" fill="white"/>
<path d="M82.4137 176.49C83.7034 177.007 84.7153 177.689 85.4495 178.536C86.1641 179.392 86.5953 180.346 86.7432 181.398C86.8855 182.463 86.7235 183.578 86.2572 184.741L82.4902 194.141L78.9156 192.708L82.6236 183.456C82.8764 182.825 82.9848 182.25 82.9487 181.732C82.9125 181.213 82.7502 180.765 82.4616 180.389C82.159 180.008 81.7413 179.71 81.2086 179.497C80.6759 179.283 80.1754 179.213 79.707 179.285C79.2386 179.358 78.8122 179.569 78.4278 179.92C78.0433 180.27 77.7247 180.76 77.4719 181.391L73.7639 190.643L70.1893 189.211L73.9563 179.811C74.4226 178.648 75.0752 177.73 75.9142 177.057C76.7475 176.399 77.7251 176.01 78.8469 175.89C79.9491 175.779 81.1381 175.978 82.4137 176.49Z" fill="white"/>
<path d="M70.0227 170.048C71.2608 170.859 72.1185 171.754 72.5957 172.735C73.0603 173.707 73.1143 174.672 72.7578 175.63L69.4604 174.256C69.628 173.752 69.6327 173.303 69.4745 172.911C69.2954 172.523 68.9847 172.184 68.5425 171.895C68.1129 171.613 67.7202 171.482 67.3643 171.502C67.0002 171.534 66.7106 171.715 66.4954 172.043C66.3134 172.321 66.2466 172.602 66.295 172.887C66.3308 173.163 66.4903 173.457 66.7735 173.769L68.5172 175.696C69.1934 176.428 69.6037 177.166 69.7481 177.91C69.8715 178.659 69.6974 179.393 69.2259 180.113C68.8122 180.745 68.2649 181.181 67.5842 181.421C66.9034 181.661 66.1476 181.699 65.3169 181.534C64.4862 181.369 63.6349 181.001 62.7632 180.431C62.0178 179.942 61.4102 179.409 60.9405 178.831C60.4708 178.252 60.1559 177.658 59.9959 177.048C59.8359 176.438 59.8604 175.849 60.0694 175.282L63.3216 176.518C63.2037 176.946 63.2236 177.329 63.3813 177.667C63.5265 177.997 63.7885 178.286 64.1676 178.534C64.5592 178.791 64.9162 178.907 65.2386 178.883C65.54 178.864 65.79 178.703 65.9885 178.4C66.1209 178.198 66.1651 177.965 66.121 177.701C66.077 177.438 65.9048 177.135 65.6046 176.794L63.893 174.942C63.4703 174.485 63.1481 174.012 62.9263 173.524C62.6918 173.028 62.5954 172.513 62.6371 171.981C62.6706 171.461 62.8693 170.923 63.2333 170.367C63.6884 169.673 64.2645 169.192 64.9619 168.927C65.6509 168.674 66.4298 168.643 67.2984 168.832C68.1544 169.014 69.0625 169.419 70.0227 170.048Z" fill="white"/>
<path d="M45.1066 170.051L43.4061 168.168L45.6731 166.487L42.9123 165.897L43.7097 163.468L46.2979 164.61L45.4245 161.919L47.9223 161.372L48.2285 164.179L50.131 162.094L51.8315 163.977L49.5326 165.657L52.3405 166.265L51.528 168.677L48.9397 167.535L49.8131 170.226L47.3305 170.789L47.0108 167.934L45.1066 170.051Z" fill="white"/>
<path d="M44.4666 139.978C45.1299 141.385 45.4017 142.776 45.2821 144.151C45.1424 145.519 44.6473 146.771 43.7969 147.907C42.94 149.029 41.7603 149.944 40.2577 150.652C39.1239 151.187 38.0221 151.506 36.9523 151.61C35.8624 151.706 34.8347 151.598 33.8691 151.285C32.8898 150.979 32.0165 150.472 31.2492 149.765C30.4682 149.065 29.8266 148.182 29.3243 147.116C28.8091 146.024 28.5121 144.987 28.4335 144.005C28.3548 143.024 28.4876 142.101 28.8318 141.238C29.1624 140.381 29.7073 139.606 30.4664 138.914L33.1378 141.712C32.475 142.325 32.0885 142.975 31.978 143.661C31.8475 144.341 31.9593 145.056 32.3135 145.807C32.6291 146.477 33.0972 146.974 33.718 147.299C34.3186 147.617 35.0217 147.745 35.827 147.682C36.6324 147.62 37.52 147.36 38.4899 146.903C39.4461 146.452 40.2114 145.932 40.7857 145.344C41.3463 144.763 41.702 144.136 41.8526 143.464C41.9832 142.785 41.8874 142.104 41.5654 141.421C41.2048 140.656 40.7073 140.114 40.0728 139.795C39.432 139.463 38.6643 139.357 37.7697 139.478L37.1172 135.704C38.1821 135.519 39.1777 135.559 40.1038 135.824C41.0099 136.081 41.8365 136.559 42.5838 137.259C43.3109 137.951 43.9385 138.858 44.4666 139.978Z" fill="white"/>
<path d="M39.5866 125.644C39.8704 126.911 39.8583 128.067 39.5504 129.111C39.2277 130.158 38.6599 131.044 37.847 131.767C37.034 132.491 36.0233 132.988 34.8149 133.259C33.5917 133.533 32.4581 133.516 31.4142 133.208C30.3703 132.9 29.4864 132.339 28.7628 131.526C28.0243 130.717 27.5132 129.678 27.2295 128.411C26.9457 127.143 26.9651 125.986 27.2878 124.939C27.5924 123.88 28.1528 122.996 28.9691 122.287C29.782 121.564 30.8001 121.065 32.0233 120.791C33.2317 120.52 34.3579 120.539 35.4019 120.847C36.4425 121.14 37.332 121.692 38.0705 122.501C38.7942 123.314 39.2995 124.362 39.5866 125.644ZM36.8897 126.248C36.7742 125.732 36.5573 125.316 36.239 125.001C35.906 124.688 35.4601 124.494 34.9014 124.418C34.3247 124.33 33.6458 124.374 32.8647 124.549C32.0689 124.727 31.4362 124.977 30.9666 125.299C30.479 125.609 30.1585 125.975 30.0052 126.396C29.8372 126.821 29.8109 127.291 29.9264 127.807C30.0386 128.308 30.2628 128.722 30.5991 129.049C30.9174 129.365 31.3576 129.568 31.9196 129.659C32.4816 129.75 33.1678 129.704 33.9784 129.523C34.7595 129.348 35.3922 129.098 35.8765 128.773C36.3461 128.451 36.6649 128.078 36.833 127.653C36.983 127.217 37.0019 126.749 36.8897 126.248Z" fill="white"/>
<path d="M37.6367 109.728L30.4131 109.926C29.6583 109.947 29.1043 110.128 28.7511 110.47C28.3824 110.798 28.2055 111.233 28.2204 111.777C28.2378 112.411 28.4551 112.896 28.8722 113.232C29.2894 113.568 29.8602 113.726 30.5849 113.706L37.7406 113.509L37.8432 117.246L25.7283 117.578L25.6338 114.136L27.5133 114.085L27.5102 113.972C26.8221 113.673 26.2809 113.22 25.8865 112.611C25.4921 112.003 25.2835 111.283 25.2607 110.453C25.2379 109.623 25.3843 108.901 25.6998 108.288C25.9998 107.66 26.4848 107.164 27.1546 106.798C27.8244 106.432 28.6952 106.234 29.767 106.205L37.5341 105.991L37.6367 109.728Z" fill="white"/>
<path d="M38.7596 99.1248C38.6023 100.338 38.1898 101.229 37.5222 101.797C36.8546 102.365 35.9592 102.576 34.836 102.431L23.7157 100.989L22.7137 97.0898L34.7774 98.6541C35.1519 98.7026 35.449 98.6422 35.669 98.4727C35.874 98.3014 35.9988 98.0434 36.0434 97.699C36.0629 97.5492 36.0683 97.39 36.0597 97.2214C36.0511 97.0527 36.0435 96.8766 36.0368 96.693L38.6652 97.0338C38.7404 97.3938 38.7865 97.7425 38.8037 98.0797C38.8209 98.417 38.8062 98.7653 38.7596 99.1248ZM28.4475 103.43L25.9089 103.101L26.8964 95.485L29.435 95.8141L28.4475 103.43Z" fill="white"/>
<path d="M40.4472 91.5367C40.1082 92.6963 39.5232 93.5401 38.6923 94.0682C37.8511 94.5775 36.9231 94.6839 35.9085 94.3873C34.9228 94.0991 34.2085 93.5284 33.7656 92.6752C33.327 91.8074 33.2193 90.588 33.4426 89.0169L33.9705 85.1119L35.9057 85.6776L35.5577 88.644C35.4752 89.2493 35.5199 89.7422 35.6918 90.1229C35.8492 90.4993 36.1599 90.7554 36.6237 90.891C37.0296 91.0096 37.3939 90.9745 37.7166 90.7856C38.0435 90.5822 38.2812 90.2269 38.4295 89.7195C38.5481 89.3137 38.565 88.9331 38.48 88.5779C38.3806 88.2184 38.1823 87.9008 37.8853 87.6252C37.5882 87.3495 37.1933 87.1397 36.7004 86.9956L33.3085 86.004C32.8157 85.8599 32.3892 85.8926 32.029 86.102C31.6586 86.2926 31.3929 86.6634 31.2318 87.2142C31.0962 87.6781 31.0927 88.094 31.2211 88.4619C31.3538 88.8154 31.6423 89.12 32.0868 89.3758L30.5092 92.4312C29.54 91.8175 28.9156 90.9662 28.636 89.8775C28.3606 88.7743 28.4072 87.5921 28.7759 86.331C29.2801 84.6061 30.0495 83.4543 31.0841 82.8756C32.1041 82.2927 33.2955 82.2004 34.658 82.5987L40.0068 84.1623L42.3665 84.0025L41.3113 87.6119L39.7084 87.6861L39.6639 87.8383C40.1257 88.3037 40.4283 88.8563 40.5717 89.4962C40.7048 90.1172 40.6633 90.7974 40.4472 91.5367Z" fill="white"/>
<path d="M45.9555 77.4491C45.4199 78.5152 44.7092 79.3413 43.8234 79.9272C42.9443 80.4996 41.961 80.8085 40.8736 80.8537C39.7861 80.899 38.6756 80.6369 37.542 80.0675C36.4084 79.498 35.5352 78.7636 34.9222 77.8642C34.3093 76.9648 33.9768 75.995 33.9247 74.9548C33.8659 73.8943 34.1042 72.8311 34.6398 71.7649C35.2838 70.4829 36.0757 69.5625 37.0155 69.0036C37.9554 68.4448 39.0228 68.2543 40.2179 68.4322L39.6646 71.8047C39.0434 71.6955 38.5267 71.7485 38.1143 71.9639C37.6952 72.159 37.3704 72.4859 37.1399 72.9448C36.9297 73.3631 36.8648 73.7952 36.945 74.2411C37.0252 74.6871 37.254 75.1231 37.6315 75.5493C38.0157 75.962 38.5519 76.3412 39.2401 76.6869C39.9284 77.0327 40.5595 77.2398 41.1335 77.3084C41.7007 77.3568 42.1871 77.28 42.5927 77.0781C42.9983 76.8763 43.3062 76.5662 43.5164 76.1478C43.7536 75.6755 43.8187 75.2096 43.7114 74.7501C43.611 74.2772 43.3316 73.8242 42.8731 73.3911L45.2381 70.9539C46.1011 71.793 46.6024 72.7631 46.7422 73.8643C46.8685 74.9586 46.6062 76.1536 45.9555 77.4491Z" fill="white"/>
<path d="M52.2179 67.3798C51.51 68.3773 50.7279 68.9705 49.8718 69.1592C49.0156 69.3479 48.1257 69.1145 47.202 68.459L38.0574 61.9694L39.0013 58.0559L48.9218 65.0962C49.2297 65.3147 49.5205 65.4007 49.7943 65.3542C50.0557 65.299 50.2869 65.1297 50.4879 64.8465C50.5753 64.7233 50.6548 64.5853 50.7263 64.4323C50.7978 64.2793 50.8737 64.1202 50.9539 63.955L53.1154 65.4889C53.0129 65.8421 52.8901 66.1716 52.7471 66.4775C52.6041 66.7834 52.4277 67.0842 52.2179 67.3798ZM41.0913 66.3447L39.0038 64.8632L43.4482 58.6006L45.5357 60.0821L41.0913 66.3447Z" fill="white"/>
<path d="M64.7958 54.653C63.7194 55.5316 62.6328 56.0871 61.536 56.3196C60.4413 56.5309 59.3979 56.4468 58.4059 56.0674C57.4044 55.6763 56.5073 54.9952 55.7146 54.0241L49.3115 46.1797L52.2949 43.7445L58.5977 51.4661C59.0274 51.9926 59.4781 52.3655 59.9496 52.585C60.4211 52.8044 60.8913 52.8788 61.3599 52.8081C61.8403 52.7279 62.3028 52.5064 62.7474 52.1435C63.1919 51.7806 63.4958 51.3767 63.6589 50.9316C63.822 50.4866 63.8432 50.0111 63.7227 49.5052C63.6021 48.9992 63.327 48.4831 62.8972 47.9566L56.5944 40.235L59.5778 37.7998L65.9809 45.6442C66.7735 46.6153 67.2611 47.6306 67.4437 48.6902C67.6168 49.7381 67.4843 50.782 67.0464 51.8217C66.6106 52.8402 65.8604 53.784 64.7958 54.653Z" fill="white"/>
<path d="M76.4145 46.9202C75.1065 47.6127 73.908 47.9311 72.819 47.8754C71.7434 47.8127 70.8723 47.3938 70.2057 46.6189L73.0015 44.3954C73.3618 44.7856 73.7521 45.0062 74.1721 45.0572C74.5984 45.0878 75.0452 44.9795 75.5123 44.7321C75.9661 44.4919 76.2703 44.2112 76.425 43.8901C76.5726 43.5556 76.5545 43.2148 76.3708 42.8678C76.2153 42.5742 76.0013 42.3799 75.7289 42.2849C75.4698 42.1828 75.1354 42.1805 74.7255 42.2779L72.1959 42.8739C71.2286 43.1126 70.3842 43.1153 69.6627 42.8822C68.9474 42.6286 68.3884 42.1214 67.9856 41.3607C67.6323 40.6933 67.5149 40.0036 67.6334 39.2915C67.752 38.5794 68.084 37.8995 68.6297 37.2517C69.1753 36.604 69.9086 36.0363 70.8295 35.5487C71.617 35.1318 72.3774 34.8574 73.1107 34.7255C73.844 34.5935 74.5164 34.6049 75.128 34.7595C75.7397 34.9142 76.2433 35.22 76.639 35.6769L73.9858 37.9275C73.6678 37.6174 73.3227 37.4498 72.9506 37.4247C72.5918 37.3925 72.2122 37.4824 71.8118 37.6944C71.398 37.9135 71.1236 38.1698 70.9886 38.4635C70.8599 38.7367 70.8803 39.0335 71.0499 39.3538C71.1629 39.5674 71.3455 39.7185 71.5975 39.8072C71.8495 39.8959 72.1974 39.8912 72.6409 39.793L75.0893 39.1888C75.6939 39.0396 76.2635 38.9858 76.7981 39.0274C77.3462 39.0619 77.8431 39.226 78.2891 39.5196C78.728 39.7999 79.1029 40.2337 79.4138 40.8209C79.8025 41.555 79.9446 42.2914 79.8402 43.0302C79.7288 43.7557 79.3802 44.4529 78.7945 45.1218C78.2222 45.7837 77.4288 46.3832 76.4145 46.9202Z" fill="white"/>
<path d="M88.5222 25.1034L90.9941 24.5316L91.3624 27.3296L93.2187 25.2028L94.955 27.0797L92.6994 28.7874L95.4758 29.3309L94.7402 31.7797L92.1384 30.6842L93.0364 33.3597L90.5645 33.9315L90.2132 31.1064L88.3178 33.2655L86.6036 31.3834L88.8592 29.6758L86.0828 29.1322L86.7963 26.6885L89.4473 27.7958L88.5222 25.1034Z" fill="white"/>
</svg>
