<svg width="280" height="166" viewBox="0 0 280 166" fill="none" xmlns="http://www.w3.org/2000/svg">
<path d="M166.717 12.6045C179.344 -4.23172 207.62 -4.20131 220.171 12.6953C236.59 -9.38364 279.91 -2.64022 279.91 32.9248V133.075C279.91 168.66 236.59 175.384 220.171 153.305C207.601 170.2 179.33 170.231 166.721 153.399C160.146 162.17 149.316 166.359 138.673 165.97C128.884 165.649 119.238 161.458 113.191 153.395C100.564 170.231 72.2902 170.201 59.7393 153.305C43.32 175.384 0 168.64 0 133.075V32.9248C0 -2.66012 43.32 -9.38365 59.7393 12.6953C72.3088 -4.19945 100.579 -4.23108 113.188 12.5996C119.764 3.82785 130.597 -0.360045 141.241 0.0302734C151.028 0.351686 160.671 4.54355 166.717 12.6045Z" fill="#F9F9F9"/>
</svg>
