<svg width="30" height="30" viewBox="0 0 30 30" fill="none" xmlns="http://www.w3.org/2000/svg">
<g clip-path="url(#clip0_281_34627)">
<path d="M14.9999 28.9286C22.6924 28.9286 28.9284 22.6925 28.9284 15C28.9284 7.30744 22.6924 1.07141 14.9999 1.07141C7.30732 1.07141 1.07129 7.30744 1.07129 15C1.07129 22.6925 7.30732 28.9286 14.9999 28.9286Z" stroke="white" stroke-width="1.5" stroke-linecap="round" stroke-linejoin="round"/>
<path d="M1.07129 15H28.9284" stroke="white" stroke-width="1.5" stroke-linecap="round" stroke-linejoin="round"/>
<path d="M20.3569 15C20.0937 20.0935 18.2176 24.9714 14.9997 28.9286C11.7818 24.9714 9.90572 20.0935 9.64258 15C9.90572 9.90643 11.7818 5.02852 14.9997 1.07141C18.2176 5.02852 20.0937 9.90643 20.3569 15V15Z" stroke="white" stroke-width="1.5" stroke-linecap="round" stroke-linejoin="round"/>
</g>
<defs>
<clipPath id="clip0_281_34627">
<rect width="30" height="30" fill="white"/>
</clipPath>
</defs>
</svg>
