<svg width="24" height="24" viewBox="0 0 24 24" fill="none" xmlns="http://www.w3.org/2000/svg">
<g clip-path="url(#clip0_202_21412)">
<path d="M12.8057 11.8268C12.5515 11.9372 12.2772 11.9941 12 11.9941C11.7228 11.9941 11.4486 11.9372 11.1943 11.8268L1.42288 7.30105C1.2642 7.22102 1.13086 7.09851 1.0377 6.94718C0.944532 6.79584 0.895203 6.62162 0.895203 6.4439C0.895203 6.26619 0.944532 6.09197 1.0377 5.94063C1.13086 5.7893 1.2642 5.66679 1.42288 5.58676L11.1943 1.02676C11.4486 0.916349 11.7228 0.859375 12 0.859375C12.2772 0.859375 12.5515 0.916349 12.8057 1.02676L22.5772 5.55247C22.7358 5.63251 22.8692 5.75501 22.9623 5.90634C23.0555 6.05768 23.1048 6.2319 23.1048 6.40962C23.1048 6.58733 23.0555 6.76156 22.9623 6.91289C22.8692 7.06422 22.7358 7.18673 22.5772 7.26676L12.8057 11.8268Z" stroke="white" stroke-width="1.5" stroke-linecap="round" stroke-linejoin="round"/>
<path d="M23.1429 12.5977L12.6857 17.4148C12.4624 17.5167 12.2198 17.5694 11.9743 17.5694C11.7288 17.5694 11.4862 17.5167 11.2629 17.4148L0.857178 12.5977" stroke="white" stroke-width="1.5" stroke-linecap="round" stroke-linejoin="round"/>
<path d="M23.1429 18.168L12.6857 22.9851C12.4624 23.087 12.2198 23.1397 11.9743 23.1397C11.7288 23.1397 11.4862 23.087 11.2629 22.9851L0.857178 18.168" stroke="white" stroke-width="1.5" stroke-linecap="round" stroke-linejoin="round"/>
</g>
<defs>
<clipPath id="clip0_202_21412">
<rect width="24" height="24" fill="white"/>
</clipPath>
</defs>
</svg>
