<svg width="54" height="54" viewBox="0 0 54 54" fill="none" xmlns="http://www.w3.org/2000/svg">
<g clip-path="url(#clip0_176_421)">
<path d="M11.9675 32.631L10.0879 39.648L3.21775 39.7934C1.16459 35.9852 0 31.6282 0 26.9981C0 22.5208 1.08886 18.2987 3.01894 14.5811H3.02041L9.13676 15.7024L11.8161 21.782C11.2553 23.4169 10.9497 25.1719 10.9497 26.9981C10.9499 28.9801 11.3089 30.879 11.9675 32.631Z" fill="#FBBB00"/>
<path d="M53.5279 21.957C53.838 23.5903 53.9997 25.2771 53.9997 27.001C53.9997 28.934 53.7964 30.8196 53.4093 32.6384C52.0949 38.8276 48.6605 44.232 43.903 48.0565L43.9015 48.0551L36.1976 47.662L35.1073 40.8556C38.2642 39.0042 40.7313 36.1068 42.0309 32.6384H27.5933V21.957H42.2415H53.5279Z" fill="#518EF8"/>
<path d="M43.902 48.0539L43.9034 48.0554C39.2764 51.7745 33.3987 53.9998 27.0003 53.9998C16.718 53.9998 7.7784 48.2527 3.21803 39.7952L11.9678 32.6328C14.248 38.7181 20.1182 43.0501 27.0003 43.0501C29.9584 43.0501 32.7297 42.2504 35.1077 40.8544L43.902 48.0539Z" fill="#28B446"/>
<path d="M44.234 6.21591L35.4872 13.3768C33.0261 11.8384 30.1168 10.9498 27 10.9498C19.9622 10.9498 13.9821 15.4804 11.8162 21.7839L3.02041 14.583H3.01894C7.51254 5.91922 16.5649 0 27 0C33.5512 0 39.5579 2.3336 44.234 6.21591Z" fill="#F14336"/>
</g>
<defs>
<clipPath id="clip0_176_421">
<rect width="54" height="54" fill="white"/>
</clipPath>
</defs>
</svg>
