<svg width="20" height="20" viewBox="0 0 20 20" fill="none" xmlns="http://www.w3.org/2000/svg">
<g clip-path="url(#clip0_385_7210)">
<path d="M7.47142 3.21484L8.0857 1.62913C8.1893 1.36065 8.37157 1.12972 8.60863 0.966576C8.8457 0.803435 9.1265 0.715694 9.41428 0.714844H10.5857C10.8735 0.715694 11.1543 0.803435 11.3913 0.966576C11.6284 1.12972 11.8107 1.36065 11.9143 1.62913L12.5286 3.21484L14.6143 4.41484L16.3 4.1577C16.5807 4.1196 16.8664 4.16581 17.1207 4.29045C17.3751 4.41509 17.5867 4.61254 17.7286 4.8577L18.3 5.8577C18.4464 6.10677 18.5139 6.39439 18.4935 6.68259C18.4731 6.97079 18.3658 7.24603 18.1857 7.47199L17.1428 8.80056V11.2006L18.2143 12.5291C18.3943 12.7551 18.5016 13.0303 18.522 13.3185C18.5425 13.6067 18.475 13.8943 18.3286 14.1434L17.7571 15.1434C17.6152 15.3886 17.4037 15.586 17.1493 15.7107C16.8949 15.8353 16.6093 15.8815 16.3286 15.8434L14.6428 15.5863L12.5571 16.7863L11.9428 18.372C11.8392 18.6405 11.657 18.8714 11.4199 19.0345C11.1829 19.1977 10.902 19.2854 10.6143 19.2863H9.41428C9.1265 19.2854 8.8457 19.1977 8.60863 19.0345C8.37157 18.8714 8.1893 18.6405 8.0857 18.372L7.47142 16.7863L5.3857 15.5863L3.69999 15.8434C3.4193 15.8815 3.13362 15.8353 2.87925 15.7107C2.62488 15.586 2.41331 15.3886 2.27142 15.1434L1.69999 14.1434C1.55356 13.8943 1.4861 13.6067 1.5065 13.3185C1.52691 13.0303 1.63422 12.7551 1.81428 12.5291L2.85713 11.2006V8.80056L1.7857 7.47199C1.60565 7.24603 1.49834 6.97079 1.47793 6.68259C1.45753 6.39439 1.52499 6.10677 1.67142 5.8577L2.24285 4.8577C2.38474 4.61254 2.59631 4.41509 2.85068 4.29045C3.10505 4.16581 3.39073 4.1196 3.67142 4.1577L5.35713 4.41484L7.47142 3.21484ZM7.14285 10.0006C7.14285 10.5656 7.31042 11.118 7.62436 11.5879C7.93831 12.0578 8.38453 12.424 8.90661 12.6402C9.42868 12.8565 10.0032 12.913 10.5574 12.8028C11.1116 12.6926 11.6207 12.4204 12.0203 12.0209C12.4199 11.6213 12.692 11.1122 12.8022 10.558C12.9125 10.0037 12.8559 9.42925 12.6396 8.90718C12.4234 8.3851 12.0572 7.93888 11.5873 7.62493C11.1175 7.31098 10.5651 7.14342 9.99999 7.14342C9.24223 7.14342 8.5155 7.44444 7.97969 7.98025C7.44387 8.51607 7.14285 9.2428 7.14285 10.0006V10.0006Z" stroke="white" stroke-width="1.5" stroke-linecap="round" stroke-linejoin="round"/>
</g>
<defs>
<clipPath id="clip0_385_7210">
<rect width="20" height="20" fill="white"/>
</clipPath>
</defs>
</svg>
