<svg width="24" height="24" viewBox="0 0 24 24" fill="none" xmlns="http://www.w3.org/2000/svg">
<g clip-path="url(#clip0_354_124)">
<path d="M7.71426 22.2846C11.5014 22.2846 14.5714 19.2146 14.5714 15.4275C14.5714 11.6404 11.5014 8.57031 7.71426 8.57031C3.92716 8.57031 0.857117 11.6404 0.857117 15.4275C0.857117 19.2146 3.92716 22.2846 7.71426 22.2846Z" stroke="white" stroke-width="1.5" stroke-linecap="round" stroke-linejoin="round"/>
<path d="M16.2857 22.2846C20.0728 22.2846 23.1428 19.2146 23.1428 15.4275C23.1428 11.6404 20.0728 8.57031 16.2857 8.57031C12.4986 8.57031 9.42853 11.6404 9.42853 15.4275C9.42853 19.2146 12.4986 22.2846 16.2857 22.2846Z" stroke="white" stroke-width="1.5" stroke-linecap="round" stroke-linejoin="round"/>
<path d="M12 15.4291C15.7871 15.4291 18.8571 12.3591 18.8571 8.57199C18.8571 4.78489 15.7871 1.71484 12 1.71484C8.21287 1.71484 5.14282 4.78489 5.14282 8.57199C5.14282 12.3591 8.21287 15.4291 12 15.4291Z" stroke="white" stroke-width="1.5" stroke-linecap="round" stroke-linejoin="round"/>
</g>
<defs>
<clipPath id="clip0_354_124">
<rect width="24" height="24" fill="white"/>
</clipPath>
</defs>
</svg>
