<svg width="50" height="50" viewBox="0 0 50 50" fill="none" xmlns="http://www.w3.org/2000/svg">
<circle cx="25" cy="25" r="25" fill="white"/>
<path d="M24.7003 37.5545C28.0185 31.8071 33.1383 27.5265 40.4725 30.1793C39.305 36.7235 33.014 41.0395 26.5036 39.7822C27.3876 37.7745 29.7175 33.2552 35.5085 33.2552C31.5488 32.1942 26.3562 35.023 24.7003 39.4041C23.0443 35.023 17.8517 32.1942 13.892 33.2552C19.683 33.2552 22.0129 37.7745 22.8969 39.7822C16.3866 41.0395 10.0955 36.7235 8.92802 30.1793C16.2622 27.5265 21.382 31.8071 24.7003 37.5545Z" fill="#101828"/>
<path d="M24.7002 25.3916C24.7002 25.3916 30.7564 18.2232 42.4004 18.2232L38.3227 28.1834C30.6343 26.2204 24.7002 35.2356 24.7002 35.2356C24.7002 35.2356 18.7661 26.2204 11.0777 28.1834L7 18.2232C18.644 18.2232 24.7002 25.3916 24.7002 25.3916Z" fill="#125875"/>
<path d="M24.7003 24.1605C24.7003 24.1605 21.9261 20.6144 16.517 18.085C16.738 17.734 16.9778 17.398 17.235 17.0787L15.3971 14.3342L17.5708 16.6824C18.0835 16.1063 18.6556 15.5923 19.2762 15.1516L17.7826 12.3568L19.6984 14.8681C20.3382 14.462 21.0241 14.1314 21.7454 13.8876L21.4707 10.7064L22.2232 13.7404C22.938 13.5412 23.684 13.4261 24.4518 13.4057L24.7003 10L24.9487 13.4057C25.7165 13.4261 26.4625 13.5412 27.1773 13.7404L27.9298 10.7064L27.6551 13.8876C28.3765 14.1314 29.0623 14.462 29.7021 14.8681L31.618 12.3568L30.1243 15.1516C30.745 15.5923 31.317 16.1063 31.8298 16.6824L34.0035 14.3342L32.1656 17.0787C32.4227 17.398 32.6625 17.734 32.8835 18.085C27.4745 20.6144 24.7003 24.1605 24.7003 24.1605Z" fill="#FF7350"/>
<path d="M27.3039 25.5876C30.9131 22.9095 34.4626 21.5493 38.0777 21.0386C33.6126 20.8721 29.6465 23.3244 27.3039 25.5876Z" fill="white"/>
<path d="M22.0966 25.5876C18.4874 22.9095 14.9379 21.5493 11.3228 21.0386C15.7879 20.8721 19.754 23.3244 22.0966 25.5876Z" fill="white"/>
<path d="M27.3039 27.5514C30.9131 24.8733 34.4626 23.5131 38.0777 23.0024C33.6126 22.8358 29.6465 25.2882 27.3039 27.5514Z" fill="white"/>
<path d="M22.0966 27.5514C18.4874 24.8733 14.9379 23.5131 11.3228 23.0024C15.7879 22.8358 19.754 25.2882 22.0966 27.5514Z" fill="white"/>
<path d="M27.3039 29.515C30.9131 26.8369 34.4626 25.4767 38.0777 24.966C33.6126 24.7995 29.6465 27.2518 27.3039 29.515Z" fill="white"/>
<path d="M22.0966 29.515C18.4874 26.8369 14.9379 25.4767 11.3228 24.966C15.7879 24.7995 19.754 27.2518 22.0966 29.515Z" fill="white"/>
</svg>
