<svg width="165" height="50" viewBox="0 0 165 50" fill="none" xmlns="http://www.w3.org/2000/svg">
<circle cx="25" cy="25" r="25" fill="white"/>
<path d="M24.7003 37.5545C28.0185 31.8071 33.1383 27.5265 40.4725 30.1793C39.305 36.7235 33.014 41.0395 26.5036 39.7822C27.3876 37.7745 29.7175 33.2552 35.5085 33.2552C31.5488 32.1942 26.3562 35.023 24.7003 39.4041C23.0443 35.023 17.8517 32.1942 13.892 33.2552C19.683 33.2552 22.0129 37.7745 22.8969 39.7822C16.3866 41.0395 10.0955 36.7235 8.92802 30.1793C16.2622 27.5265 21.382 31.8071 24.7003 37.5545Z" fill="#101828"/>
<path d="M24.7002 25.3916C24.7002 25.3916 30.7564 18.2232 42.4004 18.2232L38.3227 28.1834C30.6343 26.2204 24.7002 35.2356 24.7002 35.2356C24.7002 35.2356 18.7661 26.2204 11.0777 28.1834L7 18.2232C18.644 18.2232 24.7002 25.3916 24.7002 25.3916Z" fill="#125875"/>
<path d="M24.7003 24.1605C24.7003 24.1605 21.9261 20.6144 16.517 18.085C16.738 17.734 16.9778 17.398 17.235 17.0787L15.3971 14.3342L17.5708 16.6824C18.0835 16.1063 18.6556 15.5923 19.2762 15.1516L17.7826 12.3568L19.6984 14.8681C20.3382 14.462 21.0241 14.1314 21.7454 13.8876L21.4707 10.7064L22.2232 13.7404C22.938 13.5412 23.684 13.4261 24.4518 13.4057L24.7003 10L24.9487 13.4057C25.7165 13.4261 26.4625 13.5412 27.1773 13.7404L27.9298 10.7064L27.6551 13.8876C28.3765 14.1314 29.0623 14.462 29.7021 14.8681L31.618 12.3568L30.1243 15.1516C30.745 15.5923 31.317 16.1063 31.8298 16.6824L34.0035 14.3342L32.1656 17.0787C32.4227 17.398 32.6625 17.734 32.8835 18.085C27.4745 20.6144 24.7003 24.1605 24.7003 24.1605Z" fill="#FF7350"/>
<path d="M27.3039 25.5876C30.9131 22.9095 34.4626 21.5493 38.0777 21.0386C33.6126 20.8721 29.6465 23.3244 27.3039 25.5876Z" fill="white"/>
<path d="M22.0966 25.5876C18.4874 22.9095 14.9379 21.5493 11.3228 21.0386C15.7879 20.8721 19.754 23.3244 22.0966 25.5876Z" fill="white"/>
<path d="M27.3039 27.5514C30.9131 24.8733 34.4626 23.5131 38.0777 23.0024C33.6126 22.8358 29.6465 25.2882 27.3039 27.5514Z" fill="white"/>
<path d="M22.0966 27.5514C18.4874 24.8733 14.9379 23.5131 11.3228 23.0024C15.7879 22.8358 19.754 25.2882 22.0966 27.5514Z" fill="white"/>
<path d="M27.3039 29.515C30.9131 26.8369 34.4626 25.4767 38.0777 24.966C33.6126 24.7995 29.6465 27.2518 27.3039 29.515Z" fill="white"/>
<path d="M22.0966 29.515C18.4874 26.8369 14.9379 25.4767 11.3228 24.966C15.7879 24.7995 19.754 27.2518 22.0966 29.515Z" fill="white"/>
<path d="M70.816 30.24L71.124 23.296H72.748L80.028 15.26H85.208L76.808 24.36L75.352 25.256L70.816 30.24ZM68.324 35V15.26H72.608V35H68.324ZM80.448 35L74.624 25.396L77.508 22.54L85.348 35H80.448ZM88.3851 35V20.076H92.5291V35H88.3851ZM90.5411 18.228C89.8505 18.228 89.2811 17.9947 88.8331 17.528C88.3851 17.0613 88.1611 16.5107 88.1611 15.876C88.1611 15.2227 88.3851 14.6813 88.8331 14.252C89.2811 13.804 89.8505 13.58 90.5411 13.58C91.2318 13.58 91.7825 13.804 92.1931 14.252C92.6225 14.6813 92.8371 15.2227 92.8371 15.876C92.8371 16.5107 92.6225 17.0613 92.1931 17.528C91.7638 17.9947 91.2131 18.228 90.5411 18.228ZM101.94 35.336C100.708 35.336 99.6162 35.0187 98.6642 34.384C97.7309 33.7493 96.9935 32.8533 96.4522 31.696C95.9295 30.52 95.6682 29.1293 95.6682 27.524C95.6682 25.9373 95.9295 24.5653 96.4522 23.408C96.9935 22.232 97.7309 21.3267 98.6642 20.692C99.5975 20.0573 100.68 19.74 101.912 19.74C102.603 19.74 103.219 19.852 103.76 20.076C104.32 20.3 104.806 20.608 105.216 21C105.646 21.392 105.982 21.84 106.224 22.344H106.364V14.588H110.508V35H106.588V32.704H106.476C106.234 33.208 105.888 33.6653 105.44 34.076C104.992 34.468 104.47 34.776 103.872 35C103.294 35.224 102.65 35.336 101.94 35.336ZM103.228 32.228C103.938 32.228 104.544 32.0413 105.048 31.668C105.552 31.276 105.935 30.7347 106.196 30.044C106.458 29.3347 106.588 28.4947 106.588 27.524C106.588 26.572 106.448 25.7507 106.168 25.06C105.907 24.3507 105.524 23.8093 105.02 23.436C104.516 23.044 103.919 22.848 103.228 22.848C102.538 22.848 101.94 23.044 101.436 23.436C100.951 23.8093 100.568 24.3413 100.288 25.032C100.027 25.7227 99.8962 26.5533 99.8962 27.524C99.8962 28.4947 100.027 29.3347 100.288 30.044C100.568 30.7347 100.951 31.276 101.436 31.668C101.94 32.0413 102.538 32.228 103.228 32.228ZM119.905 35.336C118.673 35.336 117.581 35.0187 116.629 34.384C115.696 33.7493 114.958 32.8533 114.417 31.696C113.894 30.52 113.633 29.1293 113.633 27.524C113.633 25.9373 113.894 24.5653 114.417 23.408C114.958 22.232 115.696 21.3267 116.629 20.692C117.562 20.0573 118.645 19.74 119.877 19.74C120.568 19.74 121.184 19.852 121.725 20.076C122.285 20.3 122.77 20.608 123.181 21C123.61 21.392 123.946 21.84 124.189 22.344H124.329V14.588H128.473V35H124.553V32.704H124.441C124.198 33.208 123.853 33.6653 123.405 34.076C122.957 34.468 122.434 34.776 121.837 35C121.258 35.224 120.614 35.336 119.905 35.336ZM121.193 32.228C121.902 32.228 122.509 32.0413 123.013 31.668C123.517 31.276 123.9 30.7347 124.161 30.044C124.422 29.3347 124.553 28.4947 124.553 27.524C124.553 26.572 124.413 25.7507 124.133 25.06C123.872 24.3507 123.489 23.8093 122.985 23.436C122.481 23.044 121.884 22.848 121.193 22.848C120.502 22.848 119.905 23.044 119.401 23.436C118.916 23.8093 118.533 24.3413 118.253 25.032C117.992 25.7227 117.861 26.5533 117.861 27.524C117.861 28.4947 117.992 29.3347 118.253 30.044C118.533 30.7347 118.916 31.276 119.401 31.668C119.905 32.0413 120.502 32.228 121.193 32.228ZM132.354 35V20.076H136.498V35H132.354ZM134.51 18.228C133.819 18.228 133.25 17.9947 132.802 17.528C132.354 17.0613 132.13 16.5107 132.13 15.876C132.13 15.2227 132.354 14.6813 132.802 14.252C133.25 13.804 133.819 13.58 134.51 13.58C135.201 13.58 135.751 13.804 136.162 14.252C136.591 14.6813 136.806 15.2227 136.806 15.876C136.806 16.5107 136.591 17.0613 136.162 17.528C135.733 17.9947 135.182 18.228 134.51 18.228ZM149.773 35V25.984C149.773 24.9947 149.549 24.2573 149.101 23.772C148.653 23.268 148.056 23.016 147.309 23.016C146.45 23.016 145.769 23.296 145.265 23.856C144.78 24.416 144.537 25.1813 144.537 26.152V35H140.393V20.076H144.229V22.428H144.369C144.742 21.588 145.312 20.9347 146.077 20.468C146.861 19.9827 147.776 19.74 148.821 19.74C149.848 19.74 150.734 19.9453 151.481 20.356C152.246 20.748 152.844 21.364 153.273 22.204C153.702 23.0253 153.917 24.0893 153.917 25.396V35H149.773ZM159.542 35.14C158.851 35.14 158.273 34.9067 157.806 34.44C157.358 33.9733 157.134 33.404 157.134 32.732C157.134 32.0787 157.358 31.528 157.806 31.08C158.273 30.6133 158.851 30.38 159.542 30.38C160.27 30.38 160.849 30.6133 161.278 31.08C161.726 31.528 161.95 32.0787 161.95 32.732C161.95 33.404 161.726 33.9733 161.278 34.44C160.849 34.9067 160.27 35.14 159.542 35.14Z" fill="white"/>
</svg>
